%TF.GenerationSoftware,KiCad,Pcbnew,8.0.8*%
%TF.CreationDate,2025-03-03T12:04:37+03:00*%
%TF.ProjectId,Dash 6.8,44617368-2036-42e3-982e-6b696361645f,rev?*%
%TF.SameCoordinates,Original*%
%TF.FileFunction,Soldermask,Top*%
%TF.FilePolarity,Negative*%
%FSLAX46Y46*%
G04 Gerber Fmt 4.6, Leading zero omitted, Abs format (unit mm)*
G04 Created by KiCad (PCBNEW 8.0.8) date 2025-03-03 12:04:37*
%MOMM*%
%LPD*%
G01*
G04 APERTURE LIST*
G04 Aperture macros list*
%AMRoundRect*
0 Rectangle with rounded corners*
0 $1 Rounding radius*
0 $2 $3 $4 $5 $6 $7 $8 $9 X,Y pos of 4 corners*
0 Add a 4 corners polygon primitive as box body*
4,1,4,$2,$3,$4,$5,$6,$7,$8,$9,$2,$3,0*
0 Add four circle primitives for the rounded corners*
1,1,$1+$1,$2,$3*
1,1,$1+$1,$4,$5*
1,1,$1+$1,$6,$7*
1,1,$1+$1,$8,$9*
0 Add four rect primitives between the rounded corners*
20,1,$1+$1,$2,$3,$4,$5,0*
20,1,$1+$1,$4,$5,$6,$7,0*
20,1,$1+$1,$6,$7,$8,$9,0*
20,1,$1+$1,$8,$9,$2,$3,0*%
%AMFreePoly0*
4,1,17,1.395000,0.765000,0.855000,0.765000,0.855000,0.535000,1.395000,0.535000,1.395000,0.115000,0.855000,0.115000,0.855000,-0.115000,1.395000,-0.115000,1.395000,-0.535000,0.855000,-0.535000,0.855000,-0.765000,1.395000,-0.765000,1.395000,-1.185000,-0.855000,-1.185000,-0.855000,1.185000,1.395000,1.185000,1.395000,0.765000,1.395000,0.765000,$1*%
%AMFreePoly1*
4,1,15,-0.679289,1.820711,1.820711,-0.679289,1.848769,-0.734357,1.839101,-0.795399,1.795399,-0.839101,1.750000,-0.850000,-0.750000,-0.850000,-0.808779,-0.830902,-0.845106,-0.780902,-0.850000,-0.750000,-0.850000,1.750000,-0.830902,1.808779,-0.780902,1.845106,-0.719098,1.845106,-0.679289,1.820711,-0.679289,1.820711,$1*%
%AMFreePoly2*
4,1,27,-0.691221,1.330902,-0.654894,1.280902,-0.650000,1.250000,-0.650000,0.850000,0.400000,0.850000,0.400000,1.250000,0.419098,1.308779,0.469098,1.345106,0.500000,1.350000,2.000000,1.350000,2.058779,1.330902,2.095106,1.280902,2.100000,1.250000,2.100000,-0.500000,2.080902,-0.558779,2.030902,-0.595106,2.000000,-0.600000,-2.250000,-0.600000,-2.308779,-0.580902,-2.345106,-0.530902,
-2.350000,-0.500000,-2.350000,1.250000,-2.330902,1.308779,-2.280902,1.345106,-2.250000,1.350000,-0.750000,1.350000,-0.691221,1.330902,-0.691221,1.330902,$1*%
G04 Aperture macros list end*
%ADD10C,0.200000*%
%ADD11R,1.000000X1.000000*%
%ADD12R,1.050000X2.200000*%
%ADD13R,1.300000X0.300000*%
%ADD14R,2.200000X1.800000*%
%ADD15RoundRect,0.200000X-0.200000X-0.275000X0.200000X-0.275000X0.200000X0.275000X-0.200000X0.275000X0*%
%ADD16RoundRect,0.225000X0.250000X-0.225000X0.250000X0.225000X-0.250000X0.225000X-0.250000X-0.225000X0*%
%ADD17RoundRect,0.200000X0.200000X0.275000X-0.200000X0.275000X-0.200000X-0.275000X0.200000X-0.275000X0*%
%ADD18RoundRect,0.218750X0.256250X-0.218750X0.256250X0.218750X-0.256250X0.218750X-0.256250X-0.218750X0*%
%ADD19C,1.500000*%
%ADD20RoundRect,0.225000X0.225000X0.250000X-0.225000X0.250000X-0.225000X-0.250000X0.225000X-0.250000X0*%
%ADD21R,3.200000X1.000000*%
%ADD22RoundRect,0.150000X-0.825000X-0.150000X0.825000X-0.150000X0.825000X0.150000X-0.825000X0.150000X0*%
%ADD23RoundRect,0.225000X-0.225000X-0.250000X0.225000X-0.250000X0.225000X0.250000X-0.225000X0.250000X0*%
%ADD24RoundRect,0.075000X-0.675000X-0.075000X0.675000X-0.075000X0.675000X0.075000X-0.675000X0.075000X0*%
%ADD25RoundRect,0.075000X-0.075000X-0.675000X0.075000X-0.675000X0.075000X0.675000X-0.075000X0.675000X0*%
%ADD26RoundRect,0.200000X-0.275000X0.200000X-0.275000X-0.200000X0.275000X-0.200000X0.275000X0.200000X0*%
%ADD27R,2.000000X2.000000*%
%ADD28R,1.700000X1.700000*%
%ADD29O,1.700000X1.700000*%
%ADD30R,0.700000X0.420000*%
%ADD31FreePoly0,180.000000*%
%ADD32RoundRect,0.225000X-0.250000X0.225000X-0.250000X-0.225000X0.250000X-0.225000X0.250000X0.225000X0*%
%ADD33RoundRect,0.150000X0.825000X0.150000X-0.825000X0.150000X-0.825000X-0.150000X0.825000X-0.150000X0*%
%ADD34R,0.900000X1.500000*%
%ADD35R,1.500000X0.900000*%
%ADD36C,0.600000*%
%ADD37R,3.900000X3.900000*%
%ADD38R,0.700000X0.450000*%
%ADD39RoundRect,0.200000X0.275000X-0.200000X0.275000X0.200000X-0.275000X0.200000X-0.275000X-0.200000X0*%
%ADD40RoundRect,0.150000X-0.150000X0.512500X-0.150000X-0.512500X0.150000X-0.512500X0.150000X0.512500X0*%
%ADD41RoundRect,0.218750X0.218750X0.256250X-0.218750X0.256250X-0.218750X-0.256250X0.218750X-0.256250X0*%
%ADD42R,0.458000X1.510000*%
%ADD43RoundRect,0.250000X0.787500X1.025000X-0.787500X1.025000X-0.787500X-1.025000X0.787500X-1.025000X0*%
%ADD44RoundRect,0.250000X0.475000X-0.250000X0.475000X0.250000X-0.475000X0.250000X-0.475000X-0.250000X0*%
%ADD45RoundRect,0.150000X-0.512500X-0.150000X0.512500X-0.150000X0.512500X0.150000X-0.512500X0.150000X0*%
%ADD46C,2.000000*%
%ADD47RoundRect,0.102000X-1.312500X-1.312500X1.312500X-1.312500X1.312500X1.312500X-1.312500X1.312500X0*%
%ADD48C,2.829000*%
%ADD49RoundRect,0.250000X-0.250000X-0.475000X0.250000X-0.475000X0.250000X0.475000X-0.250000X0.475000X0*%
%ADD50RoundRect,0.150000X-0.150000X0.825000X-0.150000X-0.825000X0.150000X-0.825000X0.150000X0.825000X0*%
%ADD51RoundRect,0.225000X-0.225000X-0.375000X0.225000X-0.375000X0.225000X0.375000X-0.225000X0.375000X0*%
%ADD52RoundRect,0.150000X0.650000X0.150000X-0.650000X0.150000X-0.650000X-0.150000X0.650000X-0.150000X0*%
%ADD53RoundRect,0.150000X0.587500X0.150000X-0.587500X0.150000X-0.587500X-0.150000X0.587500X-0.150000X0*%
%ADD54R,0.700000X2.000000*%
%ADD55R,5.100000X2.350000*%
%ADD56RoundRect,0.250000X-0.475000X0.250000X-0.475000X-0.250000X0.475000X-0.250000X0.475000X0.250000X0*%
%ADD57FreePoly1,180.000000*%
%ADD58FreePoly2,180.000000*%
%ADD59R,1.100000X1.100000*%
%ADD60C,1.100000*%
%ADD61C,2.400000*%
%ADD62R,1.500000X2.000000*%
%ADD63R,3.800000X2.000000*%
%ADD64R,1.200000X1.400000*%
%ADD65R,2.710000X3.400000*%
%ADD66RoundRect,0.150000X-0.737500X-0.150000X0.737500X-0.150000X0.737500X0.150000X-0.737500X0.150000X0*%
G04 APERTURE END LIST*
D10*
%TO.C,C68*%
X119045000Y-106330000D02*
X116545000Y-103830000D01*
X119045000Y-103830000D01*
X119045000Y-106330000D01*
G36*
X119045000Y-106330000D02*
G01*
X116545000Y-103830000D01*
X119045000Y-103830000D01*
X119045000Y-106330000D01*
G37*
X119045000Y-109330000D02*
X117545000Y-109330000D01*
X117545000Y-108830000D01*
X116295000Y-108830000D01*
X116295000Y-109330000D01*
X114795000Y-109330000D01*
X114795000Y-107580000D01*
X119045000Y-107580000D01*
X119045000Y-109330000D01*
G36*
X119045000Y-109330000D02*
G01*
X117545000Y-109330000D01*
X117545000Y-108830000D01*
X116295000Y-108830000D01*
X116295000Y-109330000D01*
X114795000Y-109330000D01*
X114795000Y-107580000D01*
X119045000Y-107580000D01*
X119045000Y-109330000D01*
G37*
%TD*%
D11*
%TO.C,J3*%
X112925000Y-85200000D03*
D12*
X114400000Y-86700000D03*
D11*
X112925000Y-88200000D03*
D12*
X111450000Y-86700000D03*
%TD*%
D13*
%TO.C,J4*%
X215800000Y-100450000D03*
X215800000Y-100950000D03*
X215800000Y-101450000D03*
X215800000Y-101950000D03*
X215800000Y-102450000D03*
X215800000Y-102950000D03*
X215800000Y-103450000D03*
X215800000Y-103950000D03*
X215800000Y-104450000D03*
X215800000Y-104950000D03*
X215800000Y-105450000D03*
X215800000Y-105950000D03*
X215800000Y-106450000D03*
X215800000Y-106950000D03*
X215800000Y-107450000D03*
X215800000Y-107950000D03*
X215800000Y-108450000D03*
X215800000Y-108950000D03*
X215800000Y-109450000D03*
X215800000Y-109950000D03*
X215800000Y-110450000D03*
X215800000Y-110950000D03*
X215800000Y-111450000D03*
X215800000Y-111950000D03*
X215800000Y-112450000D03*
X215800000Y-112950000D03*
X215800000Y-113450000D03*
X215800000Y-113950000D03*
X215800000Y-114450000D03*
X215800000Y-114950000D03*
X215800000Y-115450000D03*
X215800000Y-115950000D03*
X215800000Y-116450000D03*
X215800000Y-116950000D03*
X215800000Y-117450000D03*
X215800000Y-117950000D03*
X215800000Y-118450000D03*
X215800000Y-118950000D03*
X215800000Y-119450000D03*
X215800000Y-119950000D03*
D14*
X218350000Y-98400000D03*
X218350000Y-122000000D03*
%TD*%
D15*
%TO.C,R11*%
X194625000Y-81150000D03*
X196275000Y-81150000D03*
%TD*%
D16*
%TO.C,C34*%
X199950000Y-125475000D03*
X199950000Y-123925000D03*
%TD*%
D17*
%TO.C,R18*%
X141475000Y-130885000D03*
X139825000Y-130885000D03*
%TD*%
D15*
%TO.C,R24*%
X164425000Y-136762500D03*
X166075000Y-136762500D03*
%TD*%
D18*
%TO.C,L2*%
X116300000Y-88537500D03*
X116300000Y-86962500D03*
%TD*%
D15*
%TO.C,R20*%
X110782500Y-103180000D03*
X112432500Y-103180000D03*
%TD*%
D19*
%TO.C,5v1*%
X150750000Y-136510000D03*
%TD*%
D20*
%TO.C,C51*%
X138375000Y-130885000D03*
X136825000Y-130885000D03*
%TD*%
D19*
%TO.C,12v1*%
X121050000Y-129850000D03*
%TD*%
D15*
%TO.C,R21*%
X110782500Y-104830000D03*
X112432500Y-104830000D03*
%TD*%
D21*
%TO.C,SW2*%
X125400000Y-83400000D03*
X132200000Y-83400000D03*
X125400000Y-87400000D03*
X132200000Y-87400000D03*
%TD*%
D17*
%TO.C,R14*%
X145175000Y-138110000D03*
X143525000Y-138110000D03*
%TD*%
D22*
%TO.C,U3*%
X110900000Y-118800000D03*
X110900000Y-120070000D03*
X110900000Y-121340000D03*
X110900000Y-122610000D03*
X115850000Y-122610000D03*
X115850000Y-121340000D03*
X115850000Y-120070000D03*
X115850000Y-118800000D03*
%TD*%
D23*
%TO.C,C10*%
X207425000Y-88700000D03*
X208975000Y-88700000D03*
%TD*%
D24*
%TO.C,U4*%
X182325000Y-92050000D03*
X182325000Y-92550000D03*
X182325000Y-93050000D03*
X182325000Y-93550000D03*
X182325000Y-94050000D03*
X182325000Y-94550000D03*
X182325000Y-95050000D03*
X182325000Y-95550000D03*
X182325000Y-96050000D03*
X182325000Y-96550000D03*
X182325000Y-97050000D03*
X182325000Y-97550000D03*
X182325000Y-98050000D03*
X182325000Y-98550000D03*
X182325000Y-99050000D03*
X182325000Y-99550000D03*
X182325000Y-100050000D03*
X182325000Y-100550000D03*
X182325000Y-101050000D03*
X182325000Y-101550000D03*
X182325000Y-102050000D03*
X182325000Y-102550000D03*
X182325000Y-103050000D03*
X182325000Y-103550000D03*
X182325000Y-104050000D03*
X182325000Y-104550000D03*
X182325000Y-105050000D03*
X182325000Y-105550000D03*
X182325000Y-106050000D03*
X182325000Y-106550000D03*
X182325000Y-107050000D03*
X182325000Y-107550000D03*
X182325000Y-108050000D03*
X182325000Y-108550000D03*
X182325000Y-109050000D03*
X182325000Y-109550000D03*
X182325000Y-110050000D03*
X182325000Y-110550000D03*
X182325000Y-111050000D03*
X182325000Y-111550000D03*
X182325000Y-112050000D03*
X182325000Y-112550000D03*
X182325000Y-113050000D03*
X182325000Y-113550000D03*
D25*
X184250000Y-115475000D03*
X184750000Y-115475000D03*
X185250000Y-115475000D03*
X185750000Y-115475000D03*
X186250000Y-115475000D03*
X186750000Y-115475000D03*
X187250000Y-115475000D03*
X187750000Y-115475000D03*
X188250000Y-115475000D03*
X188750000Y-115475000D03*
X189250000Y-115475000D03*
X189750000Y-115475000D03*
X190250000Y-115475000D03*
X190750000Y-115475000D03*
X191250000Y-115475000D03*
X191750000Y-115475000D03*
X192250000Y-115475000D03*
X192750000Y-115475000D03*
X193250000Y-115475000D03*
X193750000Y-115475000D03*
X194250000Y-115475000D03*
X194750000Y-115475000D03*
X195250000Y-115475000D03*
X195750000Y-115475000D03*
X196250000Y-115475000D03*
X196750000Y-115475000D03*
X197250000Y-115475000D03*
X197750000Y-115475000D03*
X198250000Y-115475000D03*
X198750000Y-115475000D03*
X199250000Y-115475000D03*
X199750000Y-115475000D03*
X200250000Y-115475000D03*
X200750000Y-115475000D03*
X201250000Y-115475000D03*
X201750000Y-115475000D03*
X202250000Y-115475000D03*
X202750000Y-115475000D03*
X203250000Y-115475000D03*
X203750000Y-115475000D03*
X204250000Y-115475000D03*
X204750000Y-115475000D03*
X205250000Y-115475000D03*
X205750000Y-115475000D03*
D24*
X207675000Y-113550000D03*
X207675000Y-113050000D03*
X207675000Y-112550000D03*
X207675000Y-112050000D03*
X207675000Y-111550000D03*
X207675000Y-111050000D03*
X207675000Y-110550000D03*
X207675000Y-110050000D03*
X207675000Y-109550000D03*
X207675000Y-109050000D03*
X207675000Y-108550000D03*
X207675000Y-108050000D03*
X207675000Y-107550000D03*
X207675000Y-107050000D03*
X207675000Y-106550000D03*
X207675000Y-106050000D03*
X207675000Y-105550000D03*
X207675000Y-105050000D03*
X207675000Y-104550000D03*
X207675000Y-104050000D03*
X207675000Y-103550000D03*
X207675000Y-103050000D03*
X207675000Y-102550000D03*
X207675000Y-102050000D03*
X207675000Y-101550000D03*
X207675000Y-101050000D03*
X207675000Y-100550000D03*
X207675000Y-100050000D03*
X207675000Y-99550000D03*
X207675000Y-99050000D03*
X207675000Y-98550000D03*
X207675000Y-98050000D03*
X207675000Y-97550000D03*
X207675000Y-97050000D03*
X207675000Y-96550000D03*
X207675000Y-96050000D03*
X207675000Y-95550000D03*
X207675000Y-95050000D03*
X207675000Y-94550000D03*
X207675000Y-94050000D03*
X207675000Y-93550000D03*
X207675000Y-93050000D03*
X207675000Y-92550000D03*
X207675000Y-92050000D03*
D25*
X205750000Y-90125000D03*
X205250000Y-90125000D03*
X204750000Y-90125000D03*
X204250000Y-90125000D03*
X203750000Y-90125000D03*
X203250000Y-90125000D03*
X202750000Y-90125000D03*
X202250000Y-90125000D03*
X201750000Y-90125000D03*
X201250000Y-90125000D03*
X200750000Y-90125000D03*
X200250000Y-90125000D03*
X199750000Y-90125000D03*
X199250000Y-90125000D03*
X198750000Y-90125000D03*
X198250000Y-90125000D03*
X197750000Y-90125000D03*
X197250000Y-90125000D03*
X196750000Y-90125000D03*
X196250000Y-90125000D03*
X195750000Y-90125000D03*
X195250000Y-90125000D03*
X194750000Y-90125000D03*
X194250000Y-90125000D03*
X193750000Y-90125000D03*
X193250000Y-90125000D03*
X192750000Y-90125000D03*
X192250000Y-90125000D03*
X191750000Y-90125000D03*
X191250000Y-90125000D03*
X190750000Y-90125000D03*
X190250000Y-90125000D03*
X189750000Y-90125000D03*
X189250000Y-90125000D03*
X188750000Y-90125000D03*
X188250000Y-90125000D03*
X187750000Y-90125000D03*
X187250000Y-90125000D03*
X186750000Y-90125000D03*
X186250000Y-90125000D03*
X185750000Y-90125000D03*
X185250000Y-90125000D03*
X184750000Y-90125000D03*
X184250000Y-90125000D03*
%TD*%
D23*
%TO.C,C45*%
X180187500Y-119100000D03*
X181737500Y-119100000D03*
%TD*%
D16*
%TO.C,C39*%
X205200000Y-125475000D03*
X205200000Y-123925000D03*
%TD*%
D20*
%TO.C,C23*%
X182175000Y-87800000D03*
X180625000Y-87800000D03*
%TD*%
D16*
%TO.C,C38*%
X176600000Y-110950000D03*
X176600000Y-109400000D03*
%TD*%
D26*
%TO.C,R31*%
X177487500Y-128262500D03*
X177487500Y-129912500D03*
%TD*%
D21*
%TO.C,SW1*%
X145850000Y-87400000D03*
X139050000Y-87400000D03*
X145850000Y-83400000D03*
X139050000Y-83400000D03*
%TD*%
D16*
%TO.C,C43*%
X195900000Y-125475000D03*
X195900000Y-123925000D03*
%TD*%
D17*
%TO.C,R36*%
X218725000Y-82600000D03*
X217075000Y-82600000D03*
%TD*%
D27*
%TO.C,GND1*%
X131950000Y-128310000D03*
%TD*%
D23*
%TO.C,C17*%
X209825000Y-105200000D03*
X211375000Y-105200000D03*
%TD*%
%TO.C,C32*%
X176987500Y-117550000D03*
X178537500Y-117550000D03*
%TD*%
D28*
%TO.C,J6*%
X96020000Y-92200000D03*
D29*
X93480000Y-92200000D03*
X90940000Y-92200000D03*
X88400000Y-92200000D03*
%TD*%
D17*
%TO.C,R33*%
X166075000Y-138412500D03*
X164425000Y-138412500D03*
%TD*%
D26*
%TO.C,R2*%
X118030000Y-119675000D03*
X118030000Y-121325000D03*
%TD*%
%TO.C,R8*%
X180000000Y-104325000D03*
X180000000Y-105975000D03*
%TD*%
D17*
%TO.C,R10*%
X183525000Y-82000000D03*
X181875000Y-82000000D03*
%TD*%
D20*
%TO.C,C6*%
X192925000Y-86120000D03*
X191375000Y-86120000D03*
%TD*%
D26*
%TO.C,R3*%
X175050000Y-109350000D03*
X175050000Y-111000000D03*
%TD*%
D19*
%TO.C,FD4*%
X107350000Y-138250000D03*
%TD*%
D30*
%TO.C,Q1*%
X127505000Y-133675000D03*
X127505000Y-133025000D03*
X127505000Y-132375000D03*
X127505000Y-131725000D03*
D31*
X125550000Y-132700000D03*
%TD*%
D32*
%TO.C,C19*%
X193000000Y-118225000D03*
X193000000Y-119775000D03*
%TD*%
D17*
%TO.C,R32*%
X169125000Y-138412500D03*
X167475000Y-138412500D03*
%TD*%
D16*
%TO.C,C44*%
X158775000Y-82550000D03*
X158775000Y-81000000D03*
%TD*%
D33*
%TO.C,U15*%
X219475000Y-88105000D03*
X219475000Y-86835000D03*
X219475000Y-85565000D03*
X219475000Y-84295000D03*
X214525000Y-84295000D03*
X214525000Y-85565000D03*
X214525000Y-86835000D03*
X214525000Y-88105000D03*
%TD*%
D34*
%TO.C,U5*%
X84180000Y-117850000D03*
X85450000Y-117850000D03*
X86720000Y-117850000D03*
X87990000Y-117850000D03*
X89260000Y-117850000D03*
X90530000Y-117850000D03*
X91800000Y-117850000D03*
X93070000Y-117850000D03*
X94340000Y-117850000D03*
X95610000Y-117850000D03*
X96880000Y-117850000D03*
X98150000Y-117850000D03*
X99420000Y-117850000D03*
X100690000Y-117850000D03*
D35*
X101940000Y-116085000D03*
X101940000Y-114815000D03*
X101940000Y-113545000D03*
X101940000Y-112275000D03*
X101940000Y-111005000D03*
X101940000Y-109735000D03*
X101940000Y-108465000D03*
X101940000Y-107195000D03*
X101940000Y-105925000D03*
X101940000Y-104655000D03*
X101940000Y-103385000D03*
X101940000Y-102115000D03*
D34*
X100690000Y-100350000D03*
X99420000Y-100350000D03*
X98150000Y-100350000D03*
X96880000Y-100350000D03*
X95610000Y-100350000D03*
X94340000Y-100350000D03*
X93070000Y-100350000D03*
X91800000Y-100350000D03*
X90530000Y-100350000D03*
X89260000Y-100350000D03*
X87990000Y-100350000D03*
X86720000Y-100350000D03*
X85450000Y-100350000D03*
X84180000Y-100350000D03*
D36*
X91200000Y-112000000D03*
X92600000Y-112000000D03*
X90500000Y-111300000D03*
X91900000Y-111300000D03*
X93300000Y-111300000D03*
X91200000Y-110600000D03*
D37*
X91900000Y-110600000D03*
D36*
X92600000Y-110600000D03*
X90500000Y-109900000D03*
X91900000Y-109900000D03*
X93300000Y-109900000D03*
X91200000Y-109200000D03*
X92600000Y-109200000D03*
%TD*%
D38*
%TO.C,D2*%
X121600000Y-121050000D03*
X121600000Y-119750000D03*
X119600000Y-120400000D03*
%TD*%
D16*
%TO.C,C50*%
X123220000Y-129720000D03*
X123220000Y-128170000D03*
%TD*%
D26*
%TO.C,R27*%
X89400000Y-95975000D03*
X89400000Y-97625000D03*
%TD*%
D32*
%TO.C,C22*%
X205200000Y-118275000D03*
X205200000Y-119825000D03*
%TD*%
%TO.C,C18*%
X198700000Y-118325000D03*
X198700000Y-119875000D03*
%TD*%
%TO.C,C71*%
X164300000Y-125937500D03*
X164300000Y-127487500D03*
%TD*%
D39*
%TO.C,R5*%
X160350000Y-82625000D03*
X160350000Y-80975000D03*
%TD*%
D40*
%TO.C,U12*%
X179037500Y-131750000D03*
X178087500Y-131750000D03*
X177137500Y-131750000D03*
X177137500Y-134025000D03*
X179037500Y-134025000D03*
%TD*%
D20*
%TO.C,C30*%
X179475000Y-99447500D03*
X177925000Y-99447500D03*
%TD*%
D32*
%TO.C,C7*%
X209950000Y-100275000D03*
X209950000Y-101825000D03*
%TD*%
D15*
%TO.C,R9*%
X180137500Y-117600000D03*
X181787500Y-117600000D03*
%TD*%
D41*
%TO.C,FB1*%
X178550000Y-120650000D03*
X176975000Y-120650000D03*
%TD*%
D32*
%TO.C,C8*%
X203650000Y-118275000D03*
X203650000Y-119825000D03*
%TD*%
D20*
%TO.C,C28*%
X192925000Y-87670000D03*
X191375000Y-87670000D03*
%TD*%
D26*
%TO.C,R35*%
X100600000Y-96150000D03*
X100600000Y-97800000D03*
%TD*%
D42*
%TO.C,U14*%
X206350000Y-127475000D03*
X205550000Y-127475000D03*
X204750000Y-127475000D03*
X203950000Y-127475000D03*
X203150000Y-127475000D03*
X202350000Y-127475000D03*
X201550000Y-127475000D03*
X200750000Y-127475000D03*
X199950000Y-127475000D03*
X199150000Y-127475000D03*
X198350000Y-127475000D03*
X197550000Y-127475000D03*
X196750000Y-127475000D03*
X195950000Y-127475000D03*
X195150000Y-127475000D03*
X194350000Y-127475000D03*
X193550000Y-127475000D03*
X192750000Y-127475000D03*
X191950000Y-127475000D03*
X191150000Y-127475000D03*
X190350000Y-127475000D03*
X189550000Y-127475000D03*
X188750000Y-127475000D03*
X187950000Y-127475000D03*
X187150000Y-127475000D03*
X186350000Y-127475000D03*
X185550000Y-127475000D03*
X185550000Y-138975000D03*
X186350000Y-138975000D03*
X187150000Y-138975000D03*
X187950000Y-138975000D03*
X188750000Y-138975000D03*
X189550000Y-138975000D03*
X190350000Y-138975000D03*
X191150000Y-138975000D03*
X191950000Y-138975000D03*
X192750000Y-138975000D03*
X193550000Y-138975000D03*
X194350000Y-138975000D03*
X195150000Y-138975000D03*
X195950000Y-138975000D03*
X196750000Y-138975000D03*
X197550000Y-138975000D03*
X198350000Y-138975000D03*
X199150000Y-138975000D03*
X199950000Y-138975000D03*
X200750000Y-138975000D03*
X201550000Y-138975000D03*
X202350000Y-138975000D03*
X203150000Y-138975000D03*
X203950000Y-138975000D03*
X204750000Y-138975000D03*
X205550000Y-138975000D03*
X206350000Y-138975000D03*
%TD*%
D43*
%TO.C,C67*%
X141462500Y-127310000D03*
X135237500Y-127310000D03*
%TD*%
D26*
%TO.C,R1*%
X118000000Y-113975000D03*
X118000000Y-115625000D03*
%TD*%
D39*
%TO.C,R4*%
X135950000Y-86475000D03*
X135950000Y-84825000D03*
%TD*%
D44*
%TO.C,C53*%
X129687500Y-133665000D03*
X129687500Y-131765000D03*
%TD*%
D23*
%TO.C,C59*%
X158450000Y-129030000D03*
X160000000Y-129030000D03*
%TD*%
D45*
%TO.C,U6*%
X163987500Y-85075000D03*
X163987500Y-86025000D03*
X163987500Y-86975000D03*
X166262500Y-86975000D03*
X166262500Y-86025000D03*
X166262500Y-85075000D03*
%TD*%
D44*
%TO.C,C69*%
X120607500Y-105330000D03*
X120607500Y-103430000D03*
%TD*%
D32*
%TO.C,C36*%
X201800000Y-118275000D03*
X201800000Y-119825000D03*
%TD*%
D46*
%TO.C,J5*%
X131800000Y-115300000D03*
X133300000Y-97200000D03*
X168700000Y-97200000D03*
X170200000Y-115300000D03*
D47*
X143000000Y-104000000D03*
D48*
X147000000Y-104000000D03*
X151000000Y-104000000D03*
X155000000Y-104000000D03*
X159000000Y-104000000D03*
X145000000Y-108000000D03*
X149000000Y-108000000D03*
X153000000Y-108000000D03*
X157000000Y-108000000D03*
X143000000Y-112000000D03*
X147000000Y-112000000D03*
X151000000Y-112000000D03*
X155000000Y-112000000D03*
X159000000Y-112000000D03*
%TD*%
D23*
%TO.C,C40*%
X202775000Y-140800000D03*
X204325000Y-140800000D03*
%TD*%
D17*
%TO.C,R6*%
X156150000Y-89325000D03*
X154500000Y-89325000D03*
%TD*%
D49*
%TO.C,C64*%
X150850000Y-129610000D03*
X152750000Y-129610000D03*
%TD*%
D39*
%TO.C,R28*%
X174337500Y-129912500D03*
X174337500Y-128262500D03*
%TD*%
D32*
%TO.C,C27*%
X211500000Y-100275000D03*
X211500000Y-101825000D03*
%TD*%
D20*
%TO.C,C31*%
X178537500Y-119100000D03*
X176987500Y-119100000D03*
%TD*%
D49*
%TO.C,C65*%
X150837500Y-131700000D03*
X152737500Y-131700000D03*
%TD*%
D20*
%TO.C,C48*%
X183475000Y-83585000D03*
X181925000Y-83585000D03*
%TD*%
D17*
%TO.C,R37*%
X215625000Y-82600000D03*
X213975000Y-82600000D03*
%TD*%
D23*
%TO.C,C58*%
X136125000Y-138160000D03*
X137675000Y-138160000D03*
%TD*%
%TO.C,C35*%
X208325000Y-127000000D03*
X209875000Y-127000000D03*
%TD*%
D50*
%TO.C,U11*%
X168810000Y-129650000D03*
X167540000Y-129650000D03*
X166270000Y-129650000D03*
X165000000Y-129650000D03*
X165000000Y-134600000D03*
X166270000Y-134600000D03*
X167540000Y-134600000D03*
X168810000Y-134600000D03*
%TD*%
D23*
%TO.C,C46*%
X176775000Y-101700000D03*
X178325000Y-101700000D03*
%TD*%
D45*
%TO.C,D5*%
X172962500Y-131577017D03*
X172962500Y-132527017D03*
X172962500Y-133477017D03*
X175237500Y-133477017D03*
X175237500Y-132527017D03*
X175237500Y-131577017D03*
%TD*%
D17*
%TO.C,R17*%
X142125000Y-138110000D03*
X140475000Y-138110000D03*
%TD*%
D44*
%TO.C,C52*%
X131787500Y-133665000D03*
X131787500Y-131765000D03*
%TD*%
D17*
%TO.C,R12*%
X196275000Y-83150000D03*
X194625000Y-83150000D03*
%TD*%
D23*
%TO.C,C49*%
X124795000Y-135495000D03*
X126345000Y-135495000D03*
%TD*%
D20*
%TO.C,C24*%
X198075000Y-87700000D03*
X196525000Y-87700000D03*
%TD*%
D19*
%TO.C,FD1*%
X217500000Y-80400000D03*
%TD*%
D38*
%TO.C,D1*%
X121500000Y-115500000D03*
X121500000Y-114200000D03*
X119500000Y-114850000D03*
%TD*%
D20*
%TO.C,C5*%
X182175000Y-89400000D03*
X180625000Y-89400000D03*
%TD*%
D51*
%TO.C,D3*%
X153600000Y-82250000D03*
X156900000Y-82250000D03*
%TD*%
D23*
%TO.C,C16*%
X209825000Y-106700000D03*
X211375000Y-106700000D03*
%TD*%
D32*
%TO.C,C20*%
X187750000Y-117875000D03*
X187750000Y-119425000D03*
%TD*%
%TO.C,C61*%
X146850000Y-135035000D03*
X146850000Y-136585000D03*
%TD*%
D52*
%TO.C,U7*%
X192750000Y-83505000D03*
X192750000Y-82235000D03*
X192750000Y-80965000D03*
X192750000Y-79695000D03*
X185550000Y-79695000D03*
X185550000Y-80965000D03*
X185550000Y-82235000D03*
X185550000Y-83505000D03*
%TD*%
D20*
%TO.C,C62*%
X145075000Y-139660000D03*
X143525000Y-139660000D03*
%TD*%
D53*
%TO.C,D6*%
X127057500Y-129795000D03*
X127057500Y-127895000D03*
X125182500Y-128845000D03*
%TD*%
D19*
%TO.C,FD3*%
X217950000Y-137150000D03*
%TD*%
D22*
%TO.C,U2*%
X110875000Y-112795000D03*
X110875000Y-114065000D03*
X110875000Y-115335000D03*
X110875000Y-116605000D03*
X115825000Y-116605000D03*
X115825000Y-115335000D03*
X115825000Y-114065000D03*
X115825000Y-112795000D03*
%TD*%
D20*
%TO.C,C47*%
X178075000Y-107550000D03*
X176525000Y-107550000D03*
%TD*%
%TO.C,C3*%
X179475000Y-97800000D03*
X177925000Y-97800000D03*
%TD*%
D17*
%TO.C,R7*%
X181787500Y-120600000D03*
X180137500Y-120600000D03*
%TD*%
D39*
%TO.C,R25*%
X122600000Y-88025000D03*
X122600000Y-86375000D03*
%TD*%
D53*
%TO.C,U1*%
X177487500Y-115050000D03*
X177487500Y-113150000D03*
X175612500Y-114100000D03*
%TD*%
D54*
%TO.C,U10*%
X111400000Y-100650000D03*
X112500000Y-100650000D03*
X113600000Y-100650000D03*
X114700000Y-100650000D03*
X115800000Y-100650000D03*
X116900000Y-100650000D03*
X118000000Y-100650000D03*
X119100000Y-100650000D03*
X120200000Y-100650000D03*
X120200000Y-90950000D03*
X119100000Y-90950000D03*
X118000000Y-90950000D03*
X116900000Y-90950000D03*
X115800000Y-90950000D03*
X114700000Y-90950000D03*
X113600000Y-90950000D03*
X112500000Y-90950000D03*
X111400000Y-90950000D03*
%TD*%
D55*
%TO.C,L1*%
X146550000Y-132035000D03*
X146550000Y-127885000D03*
%TD*%
D16*
%TO.C,C42*%
X185000000Y-125425000D03*
X185000000Y-123875000D03*
%TD*%
D26*
%TO.C,R30*%
X179087500Y-128262500D03*
X179087500Y-129912500D03*
%TD*%
%TO.C,R13*%
X129020000Y-128020000D03*
X129020000Y-129670000D03*
%TD*%
D23*
%TO.C,C25*%
X207425000Y-87100000D03*
X208975000Y-87100000D03*
%TD*%
D20*
%TO.C,C4*%
X179475000Y-93350000D03*
X177925000Y-93350000D03*
%TD*%
D32*
%TO.C,C14*%
X186200000Y-117875000D03*
X186200000Y-119425000D03*
%TD*%
%TO.C,C12*%
X191500000Y-118225000D03*
X191500000Y-119775000D03*
%TD*%
%TO.C,C26*%
X212000000Y-94955000D03*
X212000000Y-96505000D03*
%TD*%
%TO.C,C11*%
X197150000Y-118325000D03*
X197150000Y-119875000D03*
%TD*%
D23*
%TO.C,C74*%
X214025000Y-89700000D03*
X215575000Y-89700000D03*
%TD*%
D19*
%TO.C,FD2*%
X99850000Y-82750000D03*
%TD*%
D39*
%TO.C,R29*%
X175887500Y-129912500D03*
X175887500Y-128262500D03*
%TD*%
D56*
%TO.C,C55*%
X131787500Y-135315000D03*
X131787500Y-137215000D03*
%TD*%
D57*
%TO.C,C68*%
X118295000Y-104580000D03*
D58*
X116795000Y-108080000D03*
%TD*%
D20*
%TO.C,C1*%
X179720000Y-109425000D03*
X178170000Y-109425000D03*
%TD*%
D16*
%TO.C,C70*%
X167400000Y-127487500D03*
X167400000Y-125937500D03*
%TD*%
D23*
%TO.C,C60*%
X143625000Y-136560000D03*
X145175000Y-136560000D03*
%TD*%
D59*
%TO.C,J1*%
X159050000Y-85025000D03*
D60*
X158250000Y-86775000D03*
X157450000Y-85025000D03*
X156650000Y-86775000D03*
X155850000Y-85025000D03*
D61*
X161100000Y-85900000D03*
X153800000Y-85900000D03*
%TD*%
D32*
%TO.C,C33*%
X179350000Y-113275000D03*
X179350000Y-114825000D03*
%TD*%
%TO.C,C73*%
X172737500Y-128320000D03*
X172737500Y-129870000D03*
%TD*%
D62*
%TO.C,U9*%
X160200000Y-131530000D03*
X157900000Y-131530000D03*
D63*
X157900000Y-137830000D03*
D62*
X155600000Y-131530000D03*
%TD*%
D64*
%TO.C,Y1*%
X176700000Y-103550000D03*
X176700000Y-105750000D03*
X178400000Y-105750000D03*
X178400000Y-103550000D03*
%TD*%
D17*
%TO.C,R26*%
X169125000Y-136762500D03*
X167475000Y-136762500D03*
%TD*%
D15*
%TO.C,R15*%
X143575000Y-135010000D03*
X145225000Y-135010000D03*
%TD*%
D20*
%TO.C,C2*%
X179475000Y-94900000D03*
X177925000Y-94900000D03*
%TD*%
D40*
%TO.C,D4*%
X180100000Y-122462500D03*
X179150000Y-122462500D03*
X178200000Y-122462500D03*
X178200000Y-124737500D03*
X179150000Y-124737500D03*
X180100000Y-124737500D03*
%TD*%
D26*
%TO.C,R22*%
X168950000Y-125887500D03*
X168950000Y-127537500D03*
%TD*%
D65*
%TO.C,U8*%
X139087500Y-134565000D03*
D66*
X136525000Y-132660000D03*
X136525000Y-133930000D03*
X136525000Y-135200000D03*
X136525000Y-136470000D03*
X141650000Y-136470000D03*
X141650000Y-135200000D03*
X141650000Y-133930000D03*
X141650000Y-132660000D03*
%TD*%
D49*
%TO.C,C66*%
X150850000Y-133800000D03*
X152750000Y-133800000D03*
%TD*%
D28*
%TO.C,J2*%
X209240000Y-84050000D03*
D29*
X206700000Y-84050000D03*
X204160000Y-84050000D03*
X201620000Y-84050000D03*
%TD*%
D20*
%TO.C,C41*%
X197600000Y-140900000D03*
X196050000Y-140900000D03*
%TD*%
D44*
%TO.C,C57*%
X133937500Y-133665000D03*
X133937500Y-131765000D03*
%TD*%
D20*
%TO.C,C9*%
X198075000Y-86150000D03*
X196525000Y-86150000D03*
%TD*%
D23*
%TO.C,C37*%
X210625000Y-98000000D03*
X212175000Y-98000000D03*
%TD*%
D49*
%TO.C,C63*%
X150850000Y-127500000D03*
X152750000Y-127500000D03*
%TD*%
D39*
%TO.C,R19*%
X118065000Y-88582500D03*
X118065000Y-86932500D03*
%TD*%
D23*
%TO.C,C13*%
X209825000Y-111450000D03*
X211375000Y-111450000D03*
%TD*%
%TO.C,C21*%
X209825000Y-109950000D03*
X211375000Y-109950000D03*
%TD*%
D26*
%TO.C,R34*%
X87800000Y-95975000D03*
X87800000Y-97625000D03*
%TD*%
D32*
%TO.C,C15*%
X210500000Y-94955000D03*
X210500000Y-96505000D03*
%TD*%
D26*
%TO.C,R16*%
X120050000Y-86925000D03*
X120050000Y-88575000D03*
%TD*%
D56*
%TO.C,C56*%
X129687500Y-135315000D03*
X129687500Y-137215000D03*
%TD*%
%TO.C,C54*%
X133937500Y-135365000D03*
X133937500Y-137265000D03*
%TD*%
D23*
%TO.C,C72*%
X173462500Y-135187500D03*
X175012500Y-135187500D03*
%TD*%
D20*
%TO.C,C29*%
X179725000Y-110975000D03*
X178175000Y-110975000D03*
%TD*%
D26*
%TO.C,R23*%
X165850000Y-125887500D03*
X165850000Y-127537500D03*
%TD*%
M02*
