M48
; DRILL file {KiCad 8.0.8} date 2025-03-03T12:05:58+0300
; FORMAT={-:-/ absolute / inch / decimal}
; #@! TF.CreationDate,2025-03-03T12:05:58+03:00
; #@! TF.GenerationSoftware,Kicad,Pcbnew,8.0.8
; #@! TF.FileFunction,Plated,1,2,PTH
FMAT,2
INCH
; #@! TA.AperFunction,Plated,PTH,ViaDrill
T1C0.0098
; #@! TA.AperFunction,Plated,PTH,ComponentDrill
T2C0.0098
; #@! TA.AperFunction,Plated,PTH,ViaDrill
T3C0.0157
; #@! TA.AperFunction,Plated,PTH,ViaDrill
T4C0.0197
; #@! TA.AperFunction,Plated,PTH,ComponentDrill
T5C0.0315
; #@! TA.AperFunction,Plated,PTH,ComponentDrill
T6C0.0394
; #@! TA.AperFunction,Plated,PTH,ComponentDrill
T7C0.0689
; #@! TA.AperFunction,Plated,PTH,ComponentDrill
T8C0.0787
%
G90
G05
T1
X3.2047Y-5.2736
X3.378Y-3.622
X3.4016Y-3.3839
X3.4016Y-3.8563
X3.4016Y-4.0925
X3.4016Y-4.3287
X3.4016Y-4.565
X3.4016Y-4.8012
X3.4016Y-5.0374
X3.4016Y-5.2736
X3.5906Y-3.748
X3.5984Y-3.3839
X3.5984Y-3.7795
X3.5984Y-3.8563
X3.5984Y-4.0925
X3.5984Y-4.565
X3.5984Y-4.8012
X3.5984Y-5.0374
X3.5984Y-5.2736
X3.7953Y-3.3839
X3.7953Y-3.8563
X3.7953Y-4.0925
X3.7953Y-4.3287
X3.7953Y-4.565
X3.7953Y-4.8012
X3.7953Y-5.0374
X3.7953Y-5.2736
X3.937Y-4.0945
X3.937Y-4.3228
X3.9488Y-4.565
X3.9921Y-3.3839
X3.9921Y-3.6201
X3.9921Y-4.8012
X3.9921Y-5.0374
X3.9921Y-5.2736
X4.0079Y-3.8898
X4.0906Y-4.0945
X4.1693Y-3.9961
X4.1732Y-5.2677
X4.1772Y-4.1732
X4.2283Y-4.0236
X4.2283Y-4.0709
X4.2283Y-4.628
X4.3031Y-4.2598
X4.3091Y-4.8272
X4.3165Y-4.6846
X4.3189Y-3.374
X4.3189Y-3.4094
X4.3189Y-3.4488
X4.324Y-4.1272
X4.3287Y-4.0622
X4.3406Y-5.0886
X4.3858Y-4.2598
X4.3917Y-4.4902
X4.4016Y-4.9921
X4.4035Y-3.7343
X4.4291Y-5.5492
X4.4528Y-4.8976
X4.4606Y-3.2461
X4.4882Y-5.0709
X4.5197Y-4.1535
X4.561Y-4.8287
X4.5748Y-4.063
X4.5748Y-4.1535
X4.5787Y-3.3504
X4.5787Y-5.3346
X4.6004Y-4.8957
X4.6555Y-3.2441
X4.6772Y-3.6516
X4.6791Y-3.7303
X4.7008Y-4.6063
X4.7008Y-4.6496
X4.7047Y-4.4154
X4.7106Y-3.6516
X4.748Y-4.5197
X4.752Y-4.7402
X4.7795Y-4.6063
X4.7795Y-4.6496
X4.8268Y-3.8228
X4.8484Y-5.4567
X4.8622Y-3.9213
X4.8937Y-4.9567
X4.9016Y-4.0197
X4.9055Y-3.6142
X4.937Y-4.4764
X4.9449Y-3.7008
X4.9705Y-5.4252
X4.9803Y-4.9567
X5.0Y-3.7953
X5.0157Y-4.5157
X5.0276Y-4.6811
X5.0295Y-5.3839
X5.0315Y-3.8858
X5.0374Y-3.2854
X5.0433Y-4.9567
X5.0492Y-3.4961
X5.0591Y-3.627
X5.0728Y-5.5059
X5.0925Y-5.1043
X5.1102Y-4.9567
X5.126Y-4.3031
X5.1417Y-4.685
X5.1457Y-4.3858
X5.1496Y-5.189
X5.1693Y-4.9567
X5.2323Y-5.189
X5.2362Y-4.685
X5.2559Y-3.4961
X5.2795Y-3.6299
X5.315Y-5.1358
X5.3228Y-3.1969
X5.3228Y-5.5059
X5.3268Y-4.685
X5.435Y-5.0906
X5.4882Y-4.9528
X5.502Y-3.9508
X5.5472Y-4.7402
X5.5945Y-3.628
X5.5984Y-5.5059
X5.6024Y-4.2205
X5.6516Y-5.1161
X5.687Y-5.2717
X5.7146Y-4.9193
X5.7323Y-4.5591
X5.7362Y-4.8543
X5.7559Y-5.5059
X5.7697Y-5.4213
X5.7815Y-3.626
X5.7953Y-3.935
X5.8189Y-3.1732
X5.8386Y-4.7441
X5.8406Y-5.5295
X5.8465Y-5.3819
X5.8484Y-5.2756
X5.8514Y-3.2608
X5.9213Y-3.0787
X5.9252Y-4.8504
X5.9409Y-4.6339
X5.9488Y-5.5276
X5.9724Y-3.9902
X5.9774Y-3.1348
X5.998Y-3.6988
X6.0118Y-5.3425
X6.0197Y-5.4173
X6.0236Y-4.5512
X6.063Y-5.0571
X6.063Y-5.185
X6.063Y-5.2756
X6.0945Y-3.1772
X6.0984Y-5.4213
X6.1398Y-3.7933
X6.1457Y-5.2717
X6.1693Y-3.1772
X6.1811Y-4.5512
X6.1988Y-3.2933
X6.2126Y-4.9823
X6.2343Y-3.9626
X6.2362Y-3.7795
X6.2382Y-3.5177
X6.2638Y-4.5118
X6.2638Y-5.252
X6.2638Y-5.3071
X6.2992Y-3.7087
X6.3031Y-5.252
X6.3091Y-3.252
X6.3091Y-5.418
X6.3346Y-4.7008
X6.3425Y-5.252
X6.3504Y-5.5807
X6.3583Y-5.0866
X6.3622Y-3.7795
X6.376Y-4.6358
X6.378Y-3.1811
X6.378Y-3.2776
X6.3898Y-5.1772
X6.4016Y-3.6142
X6.4291Y-3.7087
X6.4311Y-5.3445
X6.4528Y-3.5197
X6.4547Y-3.3878
X6.4665Y-5.0197
X6.4685Y-3.1811
X6.5039Y-3.3858
X6.5138Y-5.185
X6.5295Y-3.6535
X6.5315Y-3.6142
X6.5315Y-3.7835
X6.5354Y-3.126
X6.5394Y-4.6457
X6.5394Y-4.7283
X6.5787Y-5.1811
X6.5906Y-5.0217
X6.6102Y-5.5807
X6.6122Y-3.3386
X6.622Y-3.0827
X6.6476Y-5.1831
X6.6535Y-3.5197
X6.6772Y-3.4055
X6.6929Y-3.2776
X6.6988Y-5.2756
X6.705Y-5.3346
X6.7244Y-3.7795
X6.7303Y-5.063
X6.748Y-3.2165
X6.748Y-5.374
X6.7992Y-4.2874
X6.815Y-3.7795
X6.8228Y-4.7657
X6.8307Y-4.0039
X6.8307Y-4.0748
X6.8307Y-4.1693
X6.8307Y-5.374
X6.8346Y-4.5748
X6.8622Y-3.1811
X6.874Y-3.748
X6.876Y-3.8436
X6.8799Y-3.6339
X6.8858Y-3.3071
X6.8858Y-5.5827
X6.9134Y-4.0
X6.9134Y-4.0748
X6.9134Y-4.1614
X6.9134Y-4.2323
X6.9213Y-4.5984
X6.9252Y-4.4488
X6.9291Y-4.8031
X6.9409Y-3.5551
X6.9528Y-4.3681
X6.9567Y-5.0782
X6.9606Y-3.9606
X6.9606Y-4.9921
X6.9685Y-4.8898
X6.9744Y-4.5768
X6.9803Y-4.4902
X6.9843Y-5.3484
X6.998Y-4.7185
X6.998Y-5.4154
X7.0118Y-5.187
X7.0138Y-4.5768
X7.0157Y-4.3681
X7.0315Y-3.5433
X7.0315Y-3.9606
X7.0374Y-3.4587
X7.0453Y-3.1811
X7.0507Y-5.0497
X7.0512Y-5.1142
X7.0709Y-3.3071
X7.0709Y-4.2244
X7.0787Y-4.0394
X7.0863Y-3.6093
X7.0906Y-5.2382
X7.0945Y-5.315
X7.1024Y-4.8661
X7.1024Y-5.0374
X7.1043Y-4.4882
X7.1063Y-3.6467
X7.1142Y-3.7953
X7.1142Y-3.8622
X7.1176Y-4.2874
X7.1181Y-3.9291
X7.1181Y-3.9724
X7.1181Y-4.3386
X7.126Y-3.7008
X7.126Y-5.4213
X7.1309Y-4.2368
X7.1358Y-4.9744
X7.1585Y-5.0394
X7.1614Y-5.126
X7.1614Y-5.2205
X7.1654Y-3.5827
X7.1693Y-4.5787
X7.1693Y-4.8031
X7.1693Y-4.8661
X7.1693Y-4.9291
X7.189Y-5.3543
X7.2205Y-3.4882
X7.2244Y-4.622
X7.2244Y-4.7362
X7.2283Y-3.2835
X7.2283Y-3.6811
X7.2323Y-3.8898
X7.2362Y-4.3031
X7.2402Y-4.0866
X7.2402Y-4.9409
X7.248Y-3.7874
X7.2522Y-5.0013
X7.2539Y-5.2815
X7.2559Y-4.0591
X7.2559Y-4.3504
X7.2559Y-4.4882
X7.2559Y-4.7953
X7.2677Y-3.4882
X7.2717Y-4.1535
X7.2717Y-4.2137
X7.2717Y-4.257
X7.2795Y-3.7362
X7.2963Y-4.0276
X7.3064Y-4.001
X7.3228Y-5.0984
X7.3268Y-5.2992
X7.3287Y-5.4134
X7.3307Y-3.4843
X7.333Y-3.9928
X7.3377Y-3.9654
X7.3426Y-4.9688
X7.3504Y-3.8937
X7.3661Y-3.311
X7.3701Y-4.9665
X7.3711Y-3.9668
X7.3729Y-3.9342
X7.374Y-3.252
X7.3758Y-3.5965
X7.3851Y-5.0653
X7.3904Y-5.0923
X7.3937Y-3.3799
X7.3976Y-3.6398
X7.3989Y-4.9687
X7.4016Y-3.4606
X7.4094Y-3.9141
X7.4173Y-4.5984
X7.4173Y-4.8504
X7.4173Y-5.2638
X7.4173Y-5.4055
X7.4213Y-4.0354
X7.4213Y-4.2244
X7.4213Y-4.3425
X7.4213Y-4.4843
X7.4213Y-5.1496
X7.4252Y-4.7648
X7.4291Y-3.7953
X7.4291Y-4.6575
X7.4306Y-3.5955
X7.4311Y-4.9665
X7.4331Y-5.0661
X7.435Y-3.128
X7.4409Y-3.311
X7.4409Y-3.3799
X7.4409Y-4.937
X7.4449Y-4.5984
X7.4449Y-4.6822
X7.4488Y-3.439
X7.4606Y-5.0665
X7.4764Y-4.1457
X7.4764Y-4.2913
X7.4764Y-4.4055
X7.4803Y-3.2539
X7.4803Y-3.8976
X7.4803Y-4.0433
X7.4827Y-5.083
X7.4843Y-5.1575
X7.4843Y-5.2638
X7.4843Y-5.4055
X7.4921Y-3.7953
X7.5Y-3.6398
X7.5079Y-5.0655
X7.5108Y-4.6851
X7.5118Y-4.6575
X7.5166Y-4.6111
X7.5236Y-4.4921
X7.5325Y-5.0837
X7.5344Y-3.3799
X7.5344Y-3.4516
X7.5492Y-5.2362
X7.5512Y-5.3543
X7.5551Y-5.1535
X7.5575Y-3.5969
X7.562Y-3.811
X7.563Y-3.9016
X7.5669Y-3.9764
X7.5669Y-4.0551
X7.5669Y-4.1457
X7.5669Y-4.2913
X7.5669Y-4.8386
X7.5669Y-4.8772
X7.5675Y-4.6164
X7.5748Y-5.0787
X7.5787Y-5.122
X7.5827Y-3.6378
X7.5827Y-4.0236
X7.5862Y-3.8311
X7.5866Y-4.4016
X7.5886Y-4.9646
X7.6094Y-4.759
X7.6181Y-4.0236
X7.622Y-5.252
X7.6242Y-4.5943
X7.626Y-4.6218
X7.628Y-3.5095
X7.6299Y-3.8858
X7.6341Y-4.6695
X7.6431Y-4.6434
X7.6457Y-3.4409
X7.6457Y-5.3898
X7.6496Y-4.7441
X7.6575Y-3.6378
X7.6654Y-4.9331
X7.6686Y-3.7184
X7.6693Y-4.7008
X7.6762Y-4.8842
X7.6772Y-4.0512
X7.6772Y-5.1969
X7.6811Y-4.4803
X7.685Y-3.4409
X7.685Y-3.4921
X7.685Y-3.6963
X7.685Y-5.0827
X7.6929Y-3.7388
X7.6929Y-3.7677
X7.6969Y-3.6417
X7.7008Y-4.1732
X7.7008Y-4.2913
X7.7008Y-5.3307
X7.7008Y-5.3937
X7.7047Y-3.6756
X7.7047Y-4.498
X7.7087Y-3.9646
X7.7146Y-3.6083
X7.7252Y-4.4796
X7.7264Y-3.2756
X7.7283Y-3.1929
X7.7362Y-3.8071
X7.753Y-4.4793
X7.754Y-5.1001
X7.7547Y-5.0701
X7.7657Y-3.6024
X7.7657Y-4.0689
X7.7756Y-5.1339
X7.7756Y-5.4144
X7.7795Y-5.2756
X7.7824Y-4.9874
X7.7835Y-5.3071
X7.7838Y-5.0686
X7.7874Y-4.0433
X7.7894Y-4.8839
X7.7913Y-4.4685
X7.7953Y-3.6535
X7.8031Y-3.5984
X7.8051Y-4.9567
X7.8098Y-4.5029
X7.811Y-3.8819
X7.815Y-4.037
X7.815Y-4.1024
X7.815Y-4.1732
X7.8189Y-3.4961
X7.8189Y-4.2913
X7.8189Y-4.3583
X7.8257Y-5.2697
X7.8327Y-4.5916
X7.8346Y-3.1161
X7.8346Y-3.2717
X7.8399Y-5.3202
X7.8425Y-4.5051
X7.8622Y-3.3504
X7.8652Y-4.4879
X7.8659Y-5.3111
X7.8661Y-5.379
X7.874Y-3.9449
X7.8753Y-3.735
X7.8809Y-3.6063
X7.8891Y-4.5025
X7.8916Y-5.3013
X7.8937Y-4.4685
X7.9074Y-4.6212
X7.9213Y-5.1772
X7.9227Y-5.3017
X7.9252Y-3.4094
X7.9272Y-4.3703
X7.9272Y-4.9665
X7.9331Y-5.0945
X7.9409Y-4.3465
X7.9488Y-3.6614
X7.9488Y-5.2913
X7.9528Y-3.811
X7.9528Y-4.1142
X7.9528Y-4.252
X7.9548Y-4.9634
X7.9606Y-4.1929
X7.9606Y-5.1496
X7.9646Y-4.1417
X7.9685Y-5.189
X7.9724Y-4.3307
X7.9724Y-4.4684
X7.9764Y-4.1693
X7.9783Y-4.2702
X7.9843Y-3.4016
X7.9843Y-5.1024
X7.9856Y-4.863
X7.9862Y-5.1654
X7.9921Y-3.4724
X7.9936Y-4.4926
X7.998Y-5.4213
X7.9991Y-4.8189
X8.0004Y-4.2498
X8.0039Y-5.0709
X8.0039Y-5.2441
X8.0039Y-5.374
X8.0061Y-4.1828
X8.0127Y-3.633
X8.0138Y-4.8422
X8.0197Y-3.2146
X8.022Y-4.267
X8.0236Y-4.8819
X8.0295Y-5.3543
X8.0315Y-5.0748
X8.0394Y-3.7441
X8.0394Y-3.8937
X8.0422Y-4.9727
X8.0433Y-4.8228
X8.0443Y-5.5433
X8.0472Y-4.7205
X8.0472Y-5.3071
X8.0477Y-4.257
X8.0531Y-4.5929
X8.0662Y-4.2775
X8.0669Y-3.2146
X8.0669Y-3.3976
X8.0728Y-5.1594
X8.0827Y-4.4094
X8.0846Y-4.3346
X8.0906Y-5.1142
X8.0906Y-5.2756
X8.0925Y-3.1181
X8.0945Y-5.5335
X8.0984Y-4.2874
X8.1043Y-5.2343
X8.1083Y-3.2146
X8.1083Y-4.3718
X8.1091Y-3.7295
X8.1098Y-4.4202
X8.1102Y-3.4862
X8.1102Y-4.967
X8.1106Y-3.8146
X8.1122Y-3.3996
X8.1181Y-3.9173
X8.1181Y-3.9685
X8.1267Y-3.6311
X8.128Y-4.3525
X8.1329Y-4.4352
X8.1567Y-5.5
X8.1575Y-5.4685
X8.1584Y-5.0206
X8.1634Y-4.6142
X8.1969Y-5.5945
X8.2165Y-5.4646
X8.2234Y-3.8827
X8.2271Y-3.7831
X8.2283Y-4.4134
X8.2323Y-3.9094
X8.2323Y-4.0906
X8.236Y-3.815
X8.2394Y-4.4646
X8.2449Y-3.8655
X8.2465Y-4.7583
X8.248Y-4.6614
X8.248Y-4.8307
X8.2485Y-4.5949
X8.2638Y-3.9016
X8.2992Y-3.3937
X8.2992Y-3.9016
X8.3031Y-3.5079
X8.3046Y-3.5734
X8.3071Y-3.2874
X8.3072Y-3.6028
X8.311Y-4.6063
X8.3228Y-4.0906
X8.3268Y-4.9488
X8.3268Y-5.1083
X8.3386Y-3.7384
X8.3543Y-3.252
X8.3543Y-3.3583
X8.3543Y-4.6496
X8.3622Y-3.8996
X8.3661Y-3.1654
X8.3701Y-4.8701
X8.378Y-3.8268
X8.3819Y-4.0551
X8.3858Y-3.5787
X8.3937Y-3.9626
X8.4016Y-4.7205
X8.4193Y-3.7717
X8.4277Y-4.5472
X8.4285Y-4.6099
X8.4331Y-4.5827
X8.4354Y-4.3708
X8.4358Y-4.4697
X8.437Y-4.189
X8.437Y-4.2795
X8.437Y-4.8268
X8.4386Y-4.4118
X8.4409Y-4.0039
X8.4409Y-5.0
X8.4449Y-3.3189
X8.4449Y-4.5256
X8.4453Y-4.6319
X8.4456Y-4.4439
X8.4459Y-3.3687
X8.4488Y-3.8189
X8.4488Y-3.8583
X8.4488Y-3.9055
X8.4488Y-4.4961
X8.4528Y-4.3346
X8.4528Y-5.2343
X8.4567Y-5.5787
X8.5157Y-3.5748
X8.5387Y-4.5345
X8.5394Y-4.6457
X8.5591Y-4.878
X8.5669Y-3.813
X8.5669Y-4.0
X8.5669Y-4.0531
X8.5709Y-4.378
X8.5728Y-4.4469
X8.5965Y-3.874
X8.6004Y-3.815
X8.6142Y-3.5827
X8.687Y-4.9862
X8.687Y-5.2441
X8.7047Y-3.1654
X8.7165Y-5.5807
X8.7402Y-3.7264
X8.7441Y-4.2047
X8.748Y-4.3307
X8.7598Y-5.1102
T2
X3.563Y-4.3268
X3.563Y-4.3819
X3.5906Y-4.2992
X3.5906Y-4.3543
X3.5906Y-4.4094
X3.6181Y-4.3268
X3.6181Y-4.3819
X3.6457Y-4.2992
X3.6457Y-4.3543
X3.6457Y-4.4094
X3.6732Y-4.3268
X3.6732Y-4.3819
X5.4503Y-5.2211
X5.4503Y-5.2722
X5.4503Y-5.3234
X5.4503Y-5.3746
X5.5015Y-5.2211
X5.5015Y-5.2722
X5.5015Y-5.3234
X5.5015Y-5.3746
T3
X7.0709Y-3.7953
T4
X6.0531Y-5.5295
X6.0906Y-5.5295
X6.1319Y-5.5295
X6.8465Y-4.6201
X8.4961Y-3.7972
X8.4961Y-3.8346
X8.4961Y-3.872
T5
X6.1358Y-3.3474
X6.1673Y-3.4163
X6.1988Y-3.3474
X6.2303Y-3.4163
X6.2618Y-3.3474
T6
X3.4803Y-3.6299
X3.5803Y-3.6299
X3.6803Y-3.6299
X3.7803Y-3.6299
X7.9378Y-3.3091
X8.0378Y-3.3091
X8.1378Y-3.3091
X8.2378Y-3.3091
T7
X5.6299Y-4.0945
X5.6299Y-4.4094
X5.7087Y-4.252
X5.7874Y-4.0945
X5.7874Y-4.4094
X5.8661Y-4.252
X5.9449Y-4.0945
X5.9449Y-4.4094
X6.0236Y-4.252
X6.1024Y-4.0945
X6.1024Y-4.4094
X6.1811Y-4.252
X6.2598Y-4.0945
X6.2598Y-4.4094
T8
X6.0551Y-3.3819
X6.3425Y-3.3819
M30
