%TF.GenerationSoftware,KiCad,Pcbnew,8.0.8*%
%TF.CreationDate,2025-03-03T12:04:37+03:00*%
%TF.ProjectId,Dash 6.8,44617368-2036-42e3-982e-6b696361645f,rev?*%
%TF.SameCoordinates,Original*%
%TF.FileFunction,Profile,NP*%
%FSLAX46Y46*%
G04 Gerber Fmt 4.6, Leading zero omitted, Abs format (unit mm)*
G04 Created by KiCad (PCBNEW 8.0.8) date 2025-03-03 12:04:37*
%MOMM*%
%LPD*%
G01*
G04 APERTURE LIST*
%TA.AperFunction,Profile*%
%ADD10C,0.250000*%
%TD*%
G04 APERTURE END LIST*
D10*
X226750000Y-137222279D02*
G75*
G02*
X226000000Y-143126984I-750000J-2904721D01*
G01*
X226000000Y-94127017D02*
X226000000Y-84000000D01*
X226750000Y-137222279D02*
G75*
G02*
X225999990Y-136254033I249900J968179D01*
G01*
X223000000Y-96127017D02*
G75*
G02*
X224000000Y-95127000I1000000J17D01*
G01*
X227000000Y-140127017D02*
G75*
G02*
X225000000Y-140127017I-1000000J0D01*
G01*
X225000000Y-140127017D02*
G75*
G02*
X227000000Y-140127017I1000000J0D01*
G01*
X75250000Y-83031754D02*
G75*
G02*
X76000000Y-84000000I-250000J-968246D01*
G01*
X226000000Y-77127017D02*
X76000000Y-77127017D01*
X75250000Y-83031754D02*
G75*
G02*
X76000000Y-77127023I750000J2904734D01*
G01*
X226000000Y-136254033D02*
X226000000Y-126127017D01*
X77000000Y-80127017D02*
G75*
G02*
X75000000Y-80127017I-1000000J0D01*
G01*
X75000000Y-80127017D02*
G75*
G02*
X77000000Y-80127017I1000000J0D01*
G01*
X76000000Y-84000000D02*
X76000000Y-136254033D01*
X76000000Y-143127017D02*
X226000000Y-143127017D01*
X226000000Y-94127017D02*
G75*
G02*
X225000000Y-95127000I-1000000J17D01*
G01*
X227000000Y-80127017D02*
G75*
G02*
X225000000Y-80127017I-1000000J0D01*
G01*
X225000000Y-80127017D02*
G75*
G02*
X227000000Y-80127017I1000000J0D01*
G01*
X225000000Y-125127017D02*
X224000000Y-125127017D01*
X226000000Y-84000000D02*
G75*
G02*
X226749981Y-83031682I1000100J0D01*
G01*
X224000000Y-125127017D02*
G75*
G02*
X222999983Y-124127017I-100J999917D01*
G01*
X224000000Y-95127017D02*
X225000000Y-95127017D01*
X223000000Y-124127017D02*
X223000000Y-96127017D01*
X76000000Y-143127017D02*
G75*
G02*
X75249992Y-137222247I0J3000017D01*
G01*
X226000000Y-77127017D02*
G75*
G02*
X226749992Y-83031722I0J-2999983D01*
G01*
X76000000Y-136254033D02*
G75*
G02*
X75249992Y-137222248I-1000000J33D01*
G01*
X225000000Y-125127017D02*
G75*
G02*
X225999983Y-126127017I-100J-1000083D01*
G01*
X77000000Y-140127017D02*
G75*
G02*
X75000000Y-140127017I-1000000J0D01*
G01*
X75000000Y-140127017D02*
G75*
G02*
X77000000Y-140127017I1000000J0D01*
G01*
M02*
