%TF.GenerationSoftware,KiCad,Pcbnew,7.0.1*%
%TF.CreationDate,2024-06-10T08:55:10+03:00*%
%TF.ProjectId,Dash 6.8,44617368-2036-42e3-982e-6b696361645f,rev?*%
%TF.SameCoordinates,Original*%
%TF.FileFunction,Paste,Top*%
%TF.FilePolarity,Positive*%
%FSLAX46Y46*%
G04 Gerber Fmt 4.6, Leading zero omitted, Abs format (unit mm)*
G04 Created by KiCad (PCBNEW 7.0.1) date 2024-06-10 08:55:10*
%MOMM*%
%LPD*%
G01*
G04 APERTURE LIST*
G04 Aperture macros list*
%AMRoundRect*
0 Rectangle with rounded corners*
0 $1 Rounding radius*
0 $2 $3 $4 $5 $6 $7 $8 $9 X,Y pos of 4 corners*
0 Add a 4 corners polygon primitive as box body*
4,1,4,$2,$3,$4,$5,$6,$7,$8,$9,$2,$3,0*
0 Add four circle primitives for the rounded corners*
1,1,$1+$1,$2,$3*
1,1,$1+$1,$4,$5*
1,1,$1+$1,$6,$7*
1,1,$1+$1,$8,$9*
0 Add four rect primitives between the rounded corners*
20,1,$1+$1,$2,$3,$4,$5,0*
20,1,$1+$1,$4,$5,$6,$7,0*
20,1,$1+$1,$6,$7,$8,$9,0*
20,1,$1+$1,$8,$9,$2,$3,0*%
%AMFreePoly0*
4,1,42,-0.727168,1.845106,-0.719098,1.845106,-0.700152,1.831341,-0.679289,1.820711,1.820711,-0.679289,1.831341,-0.700152,1.845106,-0.719098,1.845106,-0.727168,1.848769,-0.734357,1.845106,-0.757485,1.845106,-0.780902,1.840363,-0.787429,1.839101,-0.795399,1.822544,-0.811955,1.808779,-0.830902,1.801104,-0.833395,1.795399,-0.839101,1.772269,-0.842764,1.750000,-0.850000,-0.750000,-0.850000,
-0.765063,-0.845106,-0.780902,-0.845106,-0.793715,-0.835796,-0.808779,-0.830902,-0.818088,-0.818088,-0.830902,-0.808779,-0.835796,-0.793715,-0.845106,-0.780902,-0.845106,-0.765063,-0.850000,-0.750000,-0.850000,1.750000,-0.842764,1.772269,-0.839101,1.795399,-0.833395,1.801104,-0.830902,1.808779,-0.811955,1.822544,-0.795399,1.839101,-0.787429,1.840363,-0.780902,1.845106,-0.757485,1.845106,
-0.734357,1.848769,-0.727168,1.845106,-0.727168,1.845106,$1*%
%AMFreePoly1*
4,1,69,-0.734937,1.345106,-0.719098,1.345106,-0.706284,1.335796,-0.691221,1.330902,-0.681911,1.318088,-0.669098,1.308779,-0.664203,1.293715,-0.654894,1.280902,-0.654894,1.265063,-0.650000,1.250000,-0.650000,0.850000,0.400000,0.850000,0.400000,1.250000,0.404894,1.265063,0.404894,1.280902,0.414203,1.293715,0.419098,1.308779,0.431911,1.318088,0.441221,1.330902,0.456284,1.335796,
0.469098,1.345106,0.484937,1.345106,0.500000,1.350000,2.000000,1.350000,2.015063,1.345106,2.030902,1.345106,2.043715,1.335796,2.058779,1.330902,2.068088,1.318088,2.080902,1.308779,2.085796,1.293715,2.095106,1.280902,2.095106,1.265063,2.100000,1.250000,2.100000,-0.500000,2.095106,-0.515063,2.095106,-0.530902,2.085796,-0.543715,2.080902,-0.558779,2.068088,-0.568088,
2.058779,-0.580902,2.043715,-0.585796,2.030902,-0.595106,2.015063,-0.595106,2.000000,-0.600000,-2.250000,-0.600000,-2.265063,-0.595106,-2.280902,-0.595106,-2.293715,-0.585796,-2.308779,-0.580902,-2.318088,-0.568088,-2.330902,-0.558779,-2.335796,-0.543715,-2.345106,-0.530902,-2.345106,-0.515063,-2.350000,-0.500000,-2.350000,1.250000,-2.345106,1.265063,-2.345106,1.280902,-2.335796,1.293715,
-2.330902,1.308779,-2.318088,1.318088,-2.308779,1.330902,-2.293715,1.335796,-2.280902,1.345106,-2.265063,1.345106,-2.250000,1.350000,-0.750000,1.350000,-0.734937,1.345106,-0.734937,1.345106,$1*%
G04 Aperture macros list end*
%ADD10C,0.200000*%
%ADD11RoundRect,0.200000X-0.200000X-0.275000X0.200000X-0.275000X0.200000X0.275000X-0.200000X0.275000X0*%
%ADD12RoundRect,0.225000X0.250000X-0.225000X0.250000X0.225000X-0.250000X0.225000X-0.250000X-0.225000X0*%
%ADD13RoundRect,0.200000X0.200000X0.275000X-0.200000X0.275000X-0.200000X-0.275000X0.200000X-0.275000X0*%
%ADD14RoundRect,0.218750X0.256250X-0.218750X0.256250X0.218750X-0.256250X0.218750X-0.256250X-0.218750X0*%
%ADD15RoundRect,0.225000X0.225000X0.250000X-0.225000X0.250000X-0.225000X-0.250000X0.225000X-0.250000X0*%
%ADD16RoundRect,0.150000X-0.825000X-0.150000X0.825000X-0.150000X0.825000X0.150000X-0.825000X0.150000X0*%
%ADD17RoundRect,0.225000X-0.225000X-0.250000X0.225000X-0.250000X0.225000X0.250000X-0.225000X0.250000X0*%
%ADD18RoundRect,0.075000X-0.675000X-0.075000X0.675000X-0.075000X0.675000X0.075000X-0.675000X0.075000X0*%
%ADD19RoundRect,0.075000X-0.075000X-0.675000X0.075000X-0.675000X0.075000X0.675000X-0.075000X0.675000X0*%
%ADD20RoundRect,0.150000X-0.512500X-0.150000X0.512500X-0.150000X0.512500X0.150000X-0.512500X0.150000X0*%
%ADD21RoundRect,0.200000X-0.275000X0.200000X-0.275000X-0.200000X0.275000X-0.200000X0.275000X0.200000X0*%
%ADD22R,3.200000X1.000000*%
%ADD23R,0.600000X1.000000*%
%ADD24R,0.700000X0.420000*%
%ADD25RoundRect,0.225000X-0.250000X0.225000X-0.250000X-0.225000X0.250000X-0.225000X0.250000X0.225000X0*%
%ADD26R,0.700000X0.450000*%
%ADD27RoundRect,0.200000X0.275000X-0.200000X0.275000X0.200000X-0.275000X0.200000X-0.275000X-0.200000X0*%
%ADD28RoundRect,0.150000X-0.150000X0.512500X-0.150000X-0.512500X0.150000X-0.512500X0.150000X0.512500X0*%
%ADD29RoundRect,0.218750X0.218750X0.256250X-0.218750X0.256250X-0.218750X-0.256250X0.218750X-0.256250X0*%
%ADD30R,0.458000X1.510000*%
%ADD31RoundRect,0.250000X0.787500X1.025000X-0.787500X1.025000X-0.787500X-1.025000X0.787500X-1.025000X0*%
%ADD32R,1.000000X1.000000*%
%ADD33R,1.050000X2.200000*%
%ADD34RoundRect,0.250000X0.475000X-0.250000X0.475000X0.250000X-0.475000X0.250000X-0.475000X-0.250000X0*%
%ADD35RoundRect,0.250000X-0.250000X-0.475000X0.250000X-0.475000X0.250000X0.475000X-0.250000X0.475000X0*%
%ADD36RoundRect,0.150000X-0.150000X0.825000X-0.150000X-0.825000X0.150000X-0.825000X0.150000X0.825000X0*%
%ADD37RoundRect,0.225000X-0.225000X-0.375000X0.225000X-0.375000X0.225000X0.375000X-0.225000X0.375000X0*%
%ADD38RoundRect,0.150000X0.650000X0.150000X-0.650000X0.150000X-0.650000X-0.150000X0.650000X-0.150000X0*%
%ADD39RoundRect,0.150000X0.587500X0.150000X-0.587500X0.150000X-0.587500X-0.150000X0.587500X-0.150000X0*%
%ADD40R,0.700000X2.000000*%
%ADD41R,5.100000X2.350000*%
%ADD42RoundRect,0.250000X-0.475000X0.250000X-0.475000X-0.250000X0.475000X-0.250000X0.475000X0.250000X0*%
%ADD43FreePoly0,180.000000*%
%ADD44FreePoly1,180.000000*%
%ADD45R,1.500000X2.000000*%
%ADD46R,3.800000X2.000000*%
%ADD47R,1.200000X1.400000*%
%ADD48RoundRect,0.250000X-0.315000X-0.460000X0.315000X-0.460000X0.315000X0.460000X-0.315000X0.460000X0*%
%ADD49RoundRect,0.150000X-0.737500X-0.150000X0.737500X-0.150000X0.737500X0.150000X-0.737500X0.150000X0*%
%ADD50R,1.300000X0.300000*%
%ADD51R,2.200000X1.800000*%
%ADD52R,2.200000X1.550000*%
G04 APERTURE END LIST*
%TO.C,C68*%
D10*
X119045000Y-106330000D02*
X116545000Y-103830000D01*
X119045000Y-103830000D01*
X119045000Y-106330000D01*
G36*
X119045000Y-106330000D02*
G01*
X116545000Y-103830000D01*
X119045000Y-103830000D01*
X119045000Y-106330000D01*
G37*
X119045000Y-109330000D02*
X117545000Y-109330000D01*
X117545000Y-108830000D01*
X116295000Y-108830000D01*
X116295000Y-109330000D01*
X114795000Y-109330000D01*
X114795000Y-107580000D01*
X119045000Y-107580000D01*
X119045000Y-109330000D01*
G36*
X119045000Y-109330000D02*
G01*
X117545000Y-109330000D01*
X117545000Y-108830000D01*
X116295000Y-108830000D01*
X116295000Y-109330000D01*
X114795000Y-109330000D01*
X114795000Y-107580000D01*
X119045000Y-107580000D01*
X119045000Y-109330000D01*
G37*
%TD*%
D11*
%TO.C,R11*%
X194625000Y-81150000D03*
X196275000Y-81150000D03*
%TD*%
D12*
%TO.C,C34*%
X199950000Y-125475000D03*
X199950000Y-123925000D03*
%TD*%
D13*
%TO.C,R18*%
X141475000Y-130885000D03*
X139825000Y-130885000D03*
%TD*%
D11*
%TO.C,R24*%
X164425000Y-136762500D03*
X166075000Y-136762500D03*
%TD*%
D14*
%TO.C,L2*%
X116300000Y-88537500D03*
X116300000Y-86962500D03*
%TD*%
D11*
%TO.C,R20*%
X110782500Y-103180000D03*
X112432500Y-103180000D03*
%TD*%
D15*
%TO.C,C51*%
X138375000Y-130885000D03*
X136825000Y-130885000D03*
%TD*%
D11*
%TO.C,R21*%
X110782500Y-104830000D03*
X112432500Y-104830000D03*
%TD*%
D13*
%TO.C,R14*%
X145175000Y-138110000D03*
X143525000Y-138110000D03*
%TD*%
D16*
%TO.C,U3*%
X110900000Y-118800000D03*
X110900000Y-120070000D03*
X110900000Y-121340000D03*
X110900000Y-122610000D03*
X115850000Y-122610000D03*
X115850000Y-121340000D03*
X115850000Y-120070000D03*
X115850000Y-118800000D03*
%TD*%
D17*
%TO.C,C10*%
X208075000Y-89300000D03*
X209625000Y-89300000D03*
%TD*%
D18*
%TO.C,U4*%
X182325000Y-92050000D03*
X182325000Y-92550000D03*
X182325000Y-93050000D03*
X182325000Y-93550000D03*
X182325000Y-94050000D03*
X182325000Y-94550000D03*
X182325000Y-95050000D03*
X182325000Y-95550000D03*
X182325000Y-96050000D03*
X182325000Y-96550000D03*
X182325000Y-97050000D03*
X182325000Y-97550000D03*
X182325000Y-98050000D03*
X182325000Y-98550000D03*
X182325000Y-99050000D03*
X182325000Y-99550000D03*
X182325000Y-100050000D03*
X182325000Y-100550000D03*
X182325000Y-101050000D03*
X182325000Y-101550000D03*
X182325000Y-102050000D03*
X182325000Y-102550000D03*
X182325000Y-103050000D03*
X182325000Y-103550000D03*
X182325000Y-104050000D03*
X182325000Y-104550000D03*
X182325000Y-105050000D03*
X182325000Y-105550000D03*
X182325000Y-106050000D03*
X182325000Y-106550000D03*
X182325000Y-107050000D03*
X182325000Y-107550000D03*
X182325000Y-108050000D03*
X182325000Y-108550000D03*
X182325000Y-109050000D03*
X182325000Y-109550000D03*
X182325000Y-110050000D03*
X182325000Y-110550000D03*
X182325000Y-111050000D03*
X182325000Y-111550000D03*
X182325000Y-112050000D03*
X182325000Y-112550000D03*
X182325000Y-113050000D03*
X182325000Y-113550000D03*
D19*
X184250000Y-115475000D03*
X184750000Y-115475000D03*
X185250000Y-115475000D03*
X185750000Y-115475000D03*
X186250000Y-115475000D03*
X186750000Y-115475000D03*
X187250000Y-115475000D03*
X187750000Y-115475000D03*
X188250000Y-115475000D03*
X188750000Y-115475000D03*
X189250000Y-115475000D03*
X189750000Y-115475000D03*
X190250000Y-115475000D03*
X190750000Y-115475000D03*
X191250000Y-115475000D03*
X191750000Y-115475000D03*
X192250000Y-115475000D03*
X192750000Y-115475000D03*
X193250000Y-115475000D03*
X193750000Y-115475000D03*
X194250000Y-115475000D03*
X194750000Y-115475000D03*
X195250000Y-115475000D03*
X195750000Y-115475000D03*
X196250000Y-115475000D03*
X196750000Y-115475000D03*
X197250000Y-115475000D03*
X197750000Y-115475000D03*
X198250000Y-115475000D03*
X198750000Y-115475000D03*
X199250000Y-115475000D03*
X199750000Y-115475000D03*
X200250000Y-115475000D03*
X200750000Y-115475000D03*
X201250000Y-115475000D03*
X201750000Y-115475000D03*
X202250000Y-115475000D03*
X202750000Y-115475000D03*
X203250000Y-115475000D03*
X203750000Y-115475000D03*
X204250000Y-115475000D03*
X204750000Y-115475000D03*
X205250000Y-115475000D03*
X205750000Y-115475000D03*
D18*
X207675000Y-113550000D03*
X207675000Y-113050000D03*
X207675000Y-112550000D03*
X207675000Y-112050000D03*
X207675000Y-111550000D03*
X207675000Y-111050000D03*
X207675000Y-110550000D03*
X207675000Y-110050000D03*
X207675000Y-109550000D03*
X207675000Y-109050000D03*
X207675000Y-108550000D03*
X207675000Y-108050000D03*
X207675000Y-107550000D03*
X207675000Y-107050000D03*
X207675000Y-106550000D03*
X207675000Y-106050000D03*
X207675000Y-105550000D03*
X207675000Y-105050000D03*
X207675000Y-104550000D03*
X207675000Y-104050000D03*
X207675000Y-103550000D03*
X207675000Y-103050000D03*
X207675000Y-102550000D03*
X207675000Y-102050000D03*
X207675000Y-101550000D03*
X207675000Y-101050000D03*
X207675000Y-100550000D03*
X207675000Y-100050000D03*
X207675000Y-99550000D03*
X207675000Y-99050000D03*
X207675000Y-98550000D03*
X207675000Y-98050000D03*
X207675000Y-97550000D03*
X207675000Y-97050000D03*
X207675000Y-96550000D03*
X207675000Y-96050000D03*
X207675000Y-95550000D03*
X207675000Y-95050000D03*
X207675000Y-94550000D03*
X207675000Y-94050000D03*
X207675000Y-93550000D03*
X207675000Y-93050000D03*
X207675000Y-92550000D03*
X207675000Y-92050000D03*
D19*
X205750000Y-90125000D03*
X205250000Y-90125000D03*
X204750000Y-90125000D03*
X204250000Y-90125000D03*
X203750000Y-90125000D03*
X203250000Y-90125000D03*
X202750000Y-90125000D03*
X202250000Y-90125000D03*
X201750000Y-90125000D03*
X201250000Y-90125000D03*
X200750000Y-90125000D03*
X200250000Y-90125000D03*
X199750000Y-90125000D03*
X199250000Y-90125000D03*
X198750000Y-90125000D03*
X198250000Y-90125000D03*
X197750000Y-90125000D03*
X197250000Y-90125000D03*
X196750000Y-90125000D03*
X196250000Y-90125000D03*
X195750000Y-90125000D03*
X195250000Y-90125000D03*
X194750000Y-90125000D03*
X194250000Y-90125000D03*
X193750000Y-90125000D03*
X193250000Y-90125000D03*
X192750000Y-90125000D03*
X192250000Y-90125000D03*
X191750000Y-90125000D03*
X191250000Y-90125000D03*
X190750000Y-90125000D03*
X190250000Y-90125000D03*
X189750000Y-90125000D03*
X189250000Y-90125000D03*
X188750000Y-90125000D03*
X188250000Y-90125000D03*
X187750000Y-90125000D03*
X187250000Y-90125000D03*
X186750000Y-90125000D03*
X186250000Y-90125000D03*
X185750000Y-90125000D03*
X185250000Y-90125000D03*
X184750000Y-90125000D03*
X184250000Y-90125000D03*
%TD*%
D17*
%TO.C,C45*%
X180187500Y-119100000D03*
X181737500Y-119100000D03*
%TD*%
D12*
%TO.C,C39*%
X205100000Y-125525000D03*
X205100000Y-123975000D03*
%TD*%
D20*
%TO.C,U13*%
X172937500Y-131587500D03*
X172937500Y-132537500D03*
X172937500Y-133487500D03*
X175212500Y-133487500D03*
X175212500Y-132537500D03*
X175212500Y-131587500D03*
%TD*%
D15*
%TO.C,C23*%
X182175000Y-87700000D03*
X180625000Y-87700000D03*
%TD*%
D12*
%TO.C,C38*%
X176600000Y-110950000D03*
X176600000Y-109400000D03*
%TD*%
D21*
%TO.C,R31*%
X177487500Y-128262500D03*
X177487500Y-129912500D03*
%TD*%
D22*
%TO.C,SW1*%
X145850000Y-87500000D03*
X139050000Y-87500000D03*
X145850000Y-83500000D03*
X139050000Y-83500000D03*
%TD*%
D12*
%TO.C,C43*%
X195900000Y-125475000D03*
X195900000Y-123925000D03*
%TD*%
D17*
%TO.C,C17*%
X209875000Y-105700000D03*
X211425000Y-105700000D03*
%TD*%
%TO.C,C32*%
X176987500Y-117550000D03*
X178537500Y-117550000D03*
%TD*%
D13*
%TO.C,R33*%
X166075000Y-138412500D03*
X164425000Y-138412500D03*
%TD*%
D21*
%TO.C,R2*%
X118030000Y-119955000D03*
X118030000Y-121605000D03*
%TD*%
%TO.C,R8*%
X180000000Y-104325000D03*
X180000000Y-105975000D03*
%TD*%
D13*
%TO.C,R10*%
X183525000Y-81835000D03*
X181875000Y-81835000D03*
%TD*%
D15*
%TO.C,C6*%
X192925000Y-86120000D03*
X191375000Y-86120000D03*
%TD*%
D21*
%TO.C,R3*%
X175050000Y-109350000D03*
X175050000Y-111000000D03*
%TD*%
D23*
%TO.C,Q1*%
X125985000Y-133265000D03*
X125985000Y-132135000D03*
X125275000Y-133265000D03*
X125275000Y-132135000D03*
D24*
X124505000Y-133675000D03*
X124505000Y-133025000D03*
X124505000Y-132375000D03*
X124505000Y-131725000D03*
X127505000Y-133675000D03*
X127505000Y-133025000D03*
X127505000Y-132375000D03*
X127505000Y-131725000D03*
%TD*%
D25*
%TO.C,C19*%
X193450000Y-118250000D03*
X193450000Y-119800000D03*
%TD*%
D13*
%TO.C,R32*%
X169125000Y-138412500D03*
X167475000Y-138412500D03*
%TD*%
D12*
%TO.C,C44*%
X158775000Y-82550000D03*
X158775000Y-81000000D03*
%TD*%
D26*
%TO.C,D2*%
X122255000Y-121430000D03*
X122255000Y-120130000D03*
X120255000Y-120780000D03*
%TD*%
D12*
%TO.C,C50*%
X123220000Y-129720000D03*
X123220000Y-128170000D03*
%TD*%
D25*
%TO.C,C22*%
X205200000Y-118275000D03*
X205200000Y-119825000D03*
%TD*%
%TO.C,C18*%
X198700000Y-118325000D03*
X198700000Y-119875000D03*
%TD*%
%TO.C,C71*%
X164300000Y-125937500D03*
X164300000Y-127487500D03*
%TD*%
D27*
%TO.C,R5*%
X160350000Y-82625000D03*
X160350000Y-80975000D03*
%TD*%
D28*
%TO.C,U12*%
X179037500Y-131750000D03*
X178087500Y-131750000D03*
X177137500Y-131750000D03*
X177137500Y-134025000D03*
X179037500Y-134025000D03*
%TD*%
D15*
%TO.C,C30*%
X179475000Y-99447500D03*
X177925000Y-99447500D03*
%TD*%
D25*
%TO.C,C7*%
X209950000Y-100275000D03*
X209950000Y-101825000D03*
%TD*%
D11*
%TO.C,R9*%
X180137500Y-117600000D03*
X181787500Y-117600000D03*
%TD*%
D29*
%TO.C,FB1*%
X178550000Y-120650000D03*
X176975000Y-120650000D03*
%TD*%
D25*
%TO.C,C8*%
X203650000Y-118275000D03*
X203650000Y-119825000D03*
%TD*%
D15*
%TO.C,C28*%
X192925000Y-87670000D03*
X191375000Y-87670000D03*
%TD*%
D30*
%TO.C,U14*%
X206350000Y-127475000D03*
X205550000Y-127475000D03*
X204750000Y-127475000D03*
X203950000Y-127475000D03*
X203150000Y-127475000D03*
X202350000Y-127475000D03*
X201550000Y-127475000D03*
X200750000Y-127475000D03*
X199950000Y-127475000D03*
X199150000Y-127475000D03*
X198350000Y-127475000D03*
X197550000Y-127475000D03*
X196750000Y-127475000D03*
X195950000Y-127475000D03*
X195150000Y-127475000D03*
X194350000Y-127475000D03*
X193550000Y-127475000D03*
X192750000Y-127475000D03*
X191950000Y-127475000D03*
X191150000Y-127475000D03*
X190350000Y-127475000D03*
X189550000Y-127475000D03*
X188750000Y-127475000D03*
X187950000Y-127475000D03*
X187150000Y-127475000D03*
X186350000Y-127475000D03*
X185550000Y-127475000D03*
X185550000Y-138975000D03*
X186350000Y-138975000D03*
X187150000Y-138975000D03*
X187950000Y-138975000D03*
X188750000Y-138975000D03*
X189550000Y-138975000D03*
X190350000Y-138975000D03*
X191150000Y-138975000D03*
X191950000Y-138975000D03*
X192750000Y-138975000D03*
X193550000Y-138975000D03*
X194350000Y-138975000D03*
X195150000Y-138975000D03*
X195950000Y-138975000D03*
X196750000Y-138975000D03*
X197550000Y-138975000D03*
X198350000Y-138975000D03*
X199150000Y-138975000D03*
X199950000Y-138975000D03*
X200750000Y-138975000D03*
X201550000Y-138975000D03*
X202350000Y-138975000D03*
X203150000Y-138975000D03*
X203950000Y-138975000D03*
X204750000Y-138975000D03*
X205550000Y-138975000D03*
X206350000Y-138975000D03*
%TD*%
D31*
%TO.C,C67*%
X141462500Y-127310000D03*
X135237500Y-127310000D03*
%TD*%
D32*
%TO.C,J3*%
X112925000Y-88200000D03*
D33*
X111450000Y-86700000D03*
D32*
X112925000Y-85200000D03*
D33*
X114400000Y-86700000D03*
%TD*%
D21*
%TO.C,R1*%
X118000000Y-113975000D03*
X118000000Y-115625000D03*
%TD*%
D27*
%TO.C,R4*%
X135950000Y-86475000D03*
X135950000Y-84825000D03*
%TD*%
D34*
%TO.C,C53*%
X129687500Y-133665000D03*
X129687500Y-131765000D03*
%TD*%
D17*
%TO.C,C59*%
X158450000Y-129030000D03*
X160000000Y-129030000D03*
%TD*%
D20*
%TO.C,U6*%
X163987500Y-85075000D03*
X163987500Y-86025000D03*
X163987500Y-86975000D03*
X166262500Y-86975000D03*
X166262500Y-86025000D03*
X166262500Y-85075000D03*
%TD*%
D34*
%TO.C,C69*%
X120607500Y-105330000D03*
X120607500Y-103430000D03*
%TD*%
D25*
%TO.C,C36*%
X201800000Y-118275000D03*
X201800000Y-119825000D03*
%TD*%
D17*
%TO.C,C40*%
X202775000Y-140800000D03*
X204325000Y-140800000D03*
%TD*%
D13*
%TO.C,R6*%
X156150000Y-89325000D03*
X154500000Y-89325000D03*
%TD*%
D35*
%TO.C,C64*%
X150850000Y-129610000D03*
X152750000Y-129610000D03*
%TD*%
D27*
%TO.C,R28*%
X174337500Y-129912500D03*
X174337500Y-128262500D03*
%TD*%
D25*
%TO.C,C27*%
X211500000Y-100275000D03*
X211500000Y-101825000D03*
%TD*%
D15*
%TO.C,C31*%
X178537500Y-119100000D03*
X176987500Y-119100000D03*
%TD*%
D35*
%TO.C,C65*%
X150837500Y-131700000D03*
X152737500Y-131700000D03*
%TD*%
D15*
%TO.C,C48*%
X183475000Y-83585000D03*
X181925000Y-83585000D03*
%TD*%
D17*
%TO.C,C58*%
X136125000Y-138160000D03*
X137675000Y-138160000D03*
%TD*%
%TO.C,C35*%
X208325000Y-127000000D03*
X209875000Y-127000000D03*
%TD*%
D36*
%TO.C,U11*%
X168810000Y-129650000D03*
X167540000Y-129650000D03*
X166270000Y-129650000D03*
X165000000Y-129650000D03*
X165000000Y-134600000D03*
X166270000Y-134600000D03*
X167540000Y-134600000D03*
X168810000Y-134600000D03*
%TD*%
D17*
%TO.C,C46*%
X176775000Y-101700000D03*
X178325000Y-101700000D03*
%TD*%
D13*
%TO.C,R17*%
X142125000Y-138110000D03*
X140475000Y-138110000D03*
%TD*%
D34*
%TO.C,C52*%
X131787500Y-133665000D03*
X131787500Y-131765000D03*
%TD*%
D13*
%TO.C,R12*%
X196275000Y-83150000D03*
X194625000Y-83150000D03*
%TD*%
D17*
%TO.C,C49*%
X124795000Y-135495000D03*
X126345000Y-135495000D03*
%TD*%
D15*
%TO.C,C24*%
X198075000Y-87700000D03*
X196525000Y-87700000D03*
%TD*%
D26*
%TO.C,D1*%
X122275000Y-115500000D03*
X122275000Y-114200000D03*
X120275000Y-114850000D03*
%TD*%
D15*
%TO.C,C5*%
X182175000Y-89200000D03*
X180625000Y-89200000D03*
%TD*%
D37*
%TO.C,D3*%
X153600000Y-82250000D03*
X156900000Y-82250000D03*
%TD*%
D17*
%TO.C,C16*%
X209875000Y-107250000D03*
X211425000Y-107250000D03*
%TD*%
D25*
%TO.C,C20*%
X187750000Y-117875000D03*
X187750000Y-119425000D03*
%TD*%
%TO.C,C61*%
X146850000Y-135035000D03*
X146850000Y-136585000D03*
%TD*%
D38*
%TO.C,U7*%
X192750000Y-83525000D03*
X192750000Y-82255000D03*
X192750000Y-80985000D03*
X192750000Y-79715000D03*
X185550000Y-79715000D03*
X185550000Y-80985000D03*
X185550000Y-82255000D03*
X185550000Y-83525000D03*
%TD*%
D15*
%TO.C,C62*%
X145075000Y-139660000D03*
X143525000Y-139660000D03*
%TD*%
D39*
%TO.C,D6*%
X127057500Y-129795000D03*
X127057500Y-127895000D03*
X125182500Y-128845000D03*
%TD*%
D16*
%TO.C,U2*%
X110875000Y-112795000D03*
X110875000Y-114065000D03*
X110875000Y-115335000D03*
X110875000Y-116605000D03*
X115825000Y-116605000D03*
X115825000Y-115335000D03*
X115825000Y-114065000D03*
X115825000Y-112795000D03*
%TD*%
D15*
%TO.C,C47*%
X178075000Y-107550000D03*
X176525000Y-107550000D03*
%TD*%
%TO.C,C3*%
X179475000Y-97800000D03*
X177925000Y-97800000D03*
%TD*%
D13*
%TO.C,R7*%
X181787500Y-120600000D03*
X180137500Y-120600000D03*
%TD*%
D39*
%TO.C,U1*%
X177487500Y-115050000D03*
X177487500Y-113150000D03*
X175612500Y-114100000D03*
%TD*%
D40*
%TO.C,U10*%
X111400000Y-100650000D03*
X112500000Y-100650000D03*
X113600000Y-100650000D03*
X114700000Y-100650000D03*
X115800000Y-100650000D03*
X116900000Y-100650000D03*
X118000000Y-100650000D03*
X119100000Y-100650000D03*
X120200000Y-100650000D03*
X120200000Y-90950000D03*
X119100000Y-90950000D03*
X118000000Y-90950000D03*
X116900000Y-90950000D03*
X115800000Y-90950000D03*
X114700000Y-90950000D03*
X113600000Y-90950000D03*
X112500000Y-90950000D03*
X111400000Y-90950000D03*
%TD*%
D41*
%TO.C,L1*%
X146550000Y-132035000D03*
X146550000Y-127885000D03*
%TD*%
D12*
%TO.C,C42*%
X185000000Y-125425000D03*
X185000000Y-123875000D03*
%TD*%
D21*
%TO.C,R30*%
X179087500Y-128262500D03*
X179087500Y-129912500D03*
%TD*%
%TO.C,R13*%
X129020000Y-128020000D03*
X129020000Y-129670000D03*
%TD*%
D17*
%TO.C,C25*%
X208075000Y-87750000D03*
X209625000Y-87750000D03*
%TD*%
D15*
%TO.C,C4*%
X179475000Y-93350000D03*
X177925000Y-93350000D03*
%TD*%
D25*
%TO.C,C14*%
X186200000Y-117875000D03*
X186200000Y-119425000D03*
%TD*%
%TO.C,C12*%
X191950000Y-118250000D03*
X191950000Y-119800000D03*
%TD*%
%TO.C,C26*%
X211630000Y-94955000D03*
X211630000Y-96505000D03*
%TD*%
%TO.C,C11*%
X197150000Y-118325000D03*
X197150000Y-119875000D03*
%TD*%
D27*
%TO.C,R29*%
X175887500Y-129912500D03*
X175887500Y-128262500D03*
%TD*%
D42*
%TO.C,C55*%
X131787500Y-135315000D03*
X131787500Y-137215000D03*
%TD*%
D43*
%TO.C,C68*%
X118295000Y-104580000D03*
D44*
X116795000Y-108080000D03*
%TD*%
D15*
%TO.C,C1*%
X179720000Y-109425000D03*
X178170000Y-109425000D03*
%TD*%
D12*
%TO.C,C70*%
X167400000Y-127487500D03*
X167400000Y-125937500D03*
%TD*%
D17*
%TO.C,C60*%
X143625000Y-136560000D03*
X145175000Y-136560000D03*
%TD*%
D25*
%TO.C,C33*%
X179350000Y-113275000D03*
X179350000Y-114825000D03*
%TD*%
%TO.C,C73*%
X172737500Y-128320000D03*
X172737500Y-129870000D03*
%TD*%
D45*
%TO.C,U9*%
X160200000Y-131530000D03*
X157900000Y-131530000D03*
D46*
X157900000Y-137830000D03*
D45*
X155600000Y-131530000D03*
%TD*%
D47*
%TO.C,Y1*%
X176700000Y-103550000D03*
X176700000Y-105750000D03*
X178400000Y-105750000D03*
X178400000Y-103550000D03*
%TD*%
D13*
%TO.C,R26*%
X169125000Y-136762500D03*
X167475000Y-136762500D03*
%TD*%
D11*
%TO.C,R15*%
X143575000Y-135010000D03*
X145225000Y-135010000D03*
%TD*%
D15*
%TO.C,C2*%
X179475000Y-94900000D03*
X177925000Y-94900000D03*
%TD*%
D28*
%TO.C,D4*%
X180100000Y-122462500D03*
X179150000Y-122462500D03*
X178200000Y-122462500D03*
X178200000Y-124737500D03*
X179150000Y-124737500D03*
X180100000Y-124737500D03*
%TD*%
D21*
%TO.C,R22*%
X168950000Y-125887500D03*
X168950000Y-127537500D03*
%TD*%
D48*
%TO.C,U8*%
X138407500Y-133715000D03*
X138407500Y-135415000D03*
X139767500Y-133715000D03*
X139767500Y-135415000D03*
D49*
X136525000Y-132660000D03*
X136525000Y-133930000D03*
X136525000Y-135200000D03*
X136525000Y-136470000D03*
X141650000Y-136470000D03*
X141650000Y-135200000D03*
X141650000Y-133930000D03*
X141650000Y-132660000D03*
%TD*%
D35*
%TO.C,C66*%
X150850000Y-133800000D03*
X152750000Y-133800000D03*
%TD*%
D15*
%TO.C,C41*%
X197600000Y-140900000D03*
X196050000Y-140900000D03*
%TD*%
D34*
%TO.C,C57*%
X133937500Y-133665000D03*
X133937500Y-131765000D03*
%TD*%
D15*
%TO.C,C9*%
X198075000Y-86150000D03*
X196525000Y-86150000D03*
%TD*%
D17*
%TO.C,C37*%
X210075000Y-98200000D03*
X211625000Y-98200000D03*
%TD*%
D35*
%TO.C,C63*%
X150850000Y-127500000D03*
X152750000Y-127500000D03*
%TD*%
D27*
%TO.C,R19*%
X118065000Y-88582500D03*
X118065000Y-86932500D03*
%TD*%
D17*
%TO.C,C13*%
X209925000Y-111450000D03*
X211475000Y-111450000D03*
%TD*%
%TO.C,C21*%
X209925000Y-109950000D03*
X211475000Y-109950000D03*
%TD*%
D25*
%TO.C,C15*%
X210080000Y-94955000D03*
X210080000Y-96505000D03*
%TD*%
D21*
%TO.C,R16*%
X120050000Y-86925000D03*
X120050000Y-88575000D03*
%TD*%
D42*
%TO.C,C56*%
X129687500Y-135315000D03*
X129687500Y-137215000D03*
%TD*%
%TO.C,C54*%
X133937500Y-135365000D03*
X133937500Y-137265000D03*
%TD*%
D17*
%TO.C,C72*%
X173462500Y-135187500D03*
X175012500Y-135187500D03*
%TD*%
D15*
%TO.C,C29*%
X179725000Y-110975000D03*
X178175000Y-110975000D03*
%TD*%
D50*
%TO.C,J4*%
X215800000Y-100450000D03*
X215800000Y-100950000D03*
X215800000Y-101450000D03*
X215800000Y-101950000D03*
X215800000Y-102450000D03*
X215800000Y-102950000D03*
X215800000Y-103450000D03*
X215800000Y-103950000D03*
X215800000Y-104450000D03*
X215800000Y-104950000D03*
X215800000Y-105450000D03*
X215800000Y-105950000D03*
X215800000Y-106450000D03*
X215800000Y-106950000D03*
X215800000Y-107450000D03*
X215800000Y-107950000D03*
X215800000Y-108450000D03*
X215800000Y-108950000D03*
X215800000Y-109450000D03*
X215800000Y-109950000D03*
X215800000Y-110450000D03*
X215800000Y-110950000D03*
X215800000Y-111450000D03*
X215800000Y-111950000D03*
X215800000Y-112450000D03*
X215800000Y-112950000D03*
X215800000Y-113450000D03*
X215800000Y-113950000D03*
X215800000Y-114450000D03*
X215800000Y-114950000D03*
X215800000Y-115450000D03*
X215800000Y-115950000D03*
X215800000Y-116450000D03*
X215800000Y-116950000D03*
X215800000Y-117450000D03*
X215800000Y-117950000D03*
X215800000Y-118450000D03*
X215800000Y-118950000D03*
X215800000Y-119450000D03*
X215800000Y-119950000D03*
D51*
X218700000Y-98800000D03*
D52*
X218700000Y-121450000D03*
%TD*%
D21*
%TO.C,R23*%
X165850000Y-125887500D03*
X165850000Y-127537500D03*
%TD*%
M02*
