%TF.GenerationSoftware,KiCad,Pcbnew,7.0.1*%
%TF.CreationDate,2024-06-10T08:55:10+03:00*%
%TF.ProjectId,Dash 6.8,44617368-2036-42e3-982e-6b696361645f,rev?*%
%TF.SameCoordinates,Original*%
%TF.FileFunction,Profile,NP*%
%FSLAX46Y46*%
G04 Gerber Fmt 4.6, Leading zero omitted, Abs format (unit mm)*
G04 Created by KiCad (PCBNEW 7.0.1) date 2024-06-10 08:55:10*
%MOMM*%
%LPD*%
G01*
G04 APERTURE LIST*
%TA.AperFunction,Profile*%
%ADD10C,0.250000*%
%TD*%
G04 APERTURE END LIST*
D10*
X226000000Y-143126984D02*
G75*
G03*
X226750000Y-137222279I0J2999984D01*
G01*
X226000000Y-94127017D02*
X226000000Y-84000000D01*
X225999990Y-136254033D02*
G75*
G03*
X226750000Y-137222279I999910J-67D01*
G01*
X224000000Y-95127000D02*
G75*
G03*
X223000000Y-96127017I0J-1000000D01*
G01*
X227000000Y-140127017D02*
G75*
G03*
X227000000Y-140127017I-1000000J0D01*
G01*
X76000000Y-84000000D02*
G75*
G03*
X75250000Y-83031754I-1000000J0D01*
G01*
X226000000Y-77127017D02*
X76000000Y-77127017D01*
X76000000Y-77127024D02*
G75*
G03*
X75250000Y-83031753I0J-2999996D01*
G01*
X226000000Y-136254033D02*
X226000000Y-126127017D01*
X77000000Y-80127017D02*
G75*
G03*
X77000000Y-80127017I-1000000J0D01*
G01*
X76000000Y-84000000D02*
X76000000Y-136254033D01*
X76000000Y-143127017D02*
X226000000Y-143127017D01*
X225000000Y-95127000D02*
G75*
G03*
X226000000Y-94127017I0J1000000D01*
G01*
X227000000Y-80127017D02*
G75*
G03*
X227000000Y-80127017I-1000000J0D01*
G01*
X225000000Y-125127017D02*
X224000000Y-125127017D01*
X226749981Y-83031682D02*
G75*
G03*
X226000000Y-84000000I250119J-968318D01*
G01*
X222999983Y-124127017D02*
G75*
G03*
X224000000Y-125127017I999917J-83D01*
G01*
X224000000Y-95127017D02*
X225000000Y-95127017D01*
X223000000Y-124127017D02*
X223000000Y-96127017D01*
X75249992Y-137222247D02*
G75*
G03*
X76000000Y-143127017I750008J-2904753D01*
G01*
X226749992Y-83031722D02*
G75*
G03*
X226000000Y-77127017I-749992J2904722D01*
G01*
X75249992Y-137222248D02*
G75*
G03*
X76000000Y-136254033I-249992J968248D01*
G01*
X225999983Y-126127017D02*
G75*
G03*
X225000000Y-125127017I-1000083J-83D01*
G01*
X77000000Y-140127017D02*
G75*
G03*
X77000000Y-140127017I-1000000J0D01*
G01*
M02*
