M48
; DRILL file {KiCad 7.0.1} date Mon Jun 10 04:21:54 2024
; FORMAT={-:-/ absolute / inch / decimal}
; #@! TF.CreationDate,2024-06-10T04:21:54+03:00
; #@! TF.GenerationSoftware,Kicad,Pcbnew,7.0.1
; #@! TF.FileFunction,Plated,1,2,PTH
FMAT,2
INCH
; #@! TA.AperFunction,Plated,PTH,ComponentDrill
T1C0.0079
; #@! TA.AperFunction,Plated,PTH,ViaDrill
T2C0.0098
; #@! TA.AperFunction,Plated,PTH,ViaDrill
T3C0.0197
; #@! TA.AperFunction,Plated,PTH,ComponentDrill
T4C0.0276
; #@! TA.AperFunction,Plated,PTH,ComponentDrill
T5C0.0394
; #@! TA.AperFunction,Plated,PTH,ComponentDrill
T6C0.0689
; #@! TA.AperFunction,Plated,PTH,ComponentDrill
T7C0.0787
%
G90
G05
T1
X5.4503Y-5.2211
X5.4503Y-5.2722
X5.4503Y-5.3234
X5.4503Y-5.3746
X5.5015Y-5.2211
X5.5015Y-5.2722
X5.5015Y-5.3234
X5.5015Y-5.3746
T2
X3.2047Y-3.3839
X3.2047Y-3.6201
X3.2047Y-3.8563
X3.2047Y-4.0925
X3.2047Y-4.3287
X3.2047Y-4.565
X3.2047Y-4.8012
X3.2047Y-5.0374
X3.2047Y-5.2736
X3.4016Y-3.3839
X3.4016Y-3.6201
X3.4016Y-3.8563
X3.4016Y-4.0925
X3.4016Y-4.3287
X3.4016Y-4.565
X3.4016Y-4.8012
X3.4016Y-5.0374
X3.4016Y-5.2736
X3.5984Y-3.3839
X3.5984Y-3.6201
X3.5984Y-3.8563
X3.5984Y-4.0925
X3.5984Y-4.3287
X3.5984Y-4.565
X3.5984Y-4.8012
X3.5984Y-5.0374
X3.5984Y-5.2736
X3.7953Y-3.3839
X3.7953Y-3.6201
X3.7953Y-3.8563
X3.7953Y-4.0925
X3.7953Y-4.3287
X3.7953Y-4.565
X3.7953Y-4.8012
X3.7953Y-5.0374
X3.7953Y-5.2736
X3.9921Y-3.3839
X3.9921Y-3.6201
X3.9921Y-3.8563
X3.9921Y-4.0925
X3.9921Y-4.3287
X3.9921Y-4.565
X3.9921Y-4.8012
X3.9921Y-5.0374
X3.9921Y-5.2736
X4.1732Y-5.2677
X4.2067Y-4.628
X4.3091Y-4.6772
X4.3091Y-4.8272
X4.324Y-4.1272
X4.3287Y-4.0622
X4.3406Y-5.0886
X4.3917Y-4.4902
X4.4035Y-3.7343
X4.4291Y-5.5492
X4.4528Y-4.8976
X4.4606Y-3.2461
X4.561Y-4.8287
X4.5787Y-5.3346
X4.6004Y-4.8957
X4.6555Y-3.2441
X4.6772Y-3.6516
X4.6791Y-3.7303
X4.7047Y-4.4154
X4.7106Y-3.6516
X4.7756Y-4.7559
X4.7854Y-4.5197
X4.8484Y-5.4567
X4.8661Y-4.4331
X4.9705Y-5.4252
X5.0295Y-5.3839
X5.0374Y-3.2854
X5.0492Y-3.4961
X5.0728Y-3.6339
X5.0728Y-5.5059
X5.0925Y-5.1043
X5.1496Y-5.189
X5.1673Y-4.2697
X5.2323Y-5.189
X5.2559Y-3.4961
X5.2795Y-3.6299
X5.315Y-5.1358
X5.3228Y-5.5059
X5.435Y-5.0906
X5.502Y-3.9508
X5.5118Y-4.2185
X5.5531Y-4.9291
X5.5945Y-3.628
X5.5984Y-5.5059
X5.6516Y-5.1161
X5.687Y-5.2717
X5.7146Y-4.9193
X5.7559Y-5.5059
X5.7697Y-5.439
X5.7815Y-3.626
X5.7953Y-3.935
X5.8406Y-5.5295
X5.8484Y-5.2756
X5.9252Y-4.8504
X5.9272Y-5.439
X5.9488Y-5.5276
X5.9724Y-3.9902
X5.998Y-3.6988
X6.0118Y-5.3425
X6.0197Y-5.435
X6.0217Y-4.6201
X6.063Y-5.0571
X6.1398Y-3.7933
X6.1988Y-3.2933
X6.2126Y-4.6339
X6.2126Y-4.9823
X6.2343Y-3.9626
X6.2382Y-3.5177
X6.3091Y-3.252
X6.3307Y-4.4961
X6.3346Y-4.752
X6.3504Y-5.5807
X6.378Y-3.2776
X6.3996Y-4.5728
X6.4311Y-5.3445
X6.4528Y-3.5197
X6.4547Y-3.3878
X6.4665Y-5.0197
X6.5138Y-5.185
X6.5276Y-3.3858
X6.5295Y-3.1083
X6.5295Y-3.6535
X6.5669Y-4.5709
X6.5669Y-4.7657
X6.5906Y-5.0217
X6.6102Y-5.5807
X6.6122Y-3.3386
X6.6476Y-5.1831
X6.6535Y-3.5197
X6.6772Y-3.4055
X6.6988Y-5.2756
X6.7008Y-5.3504
X6.7087Y-3.2776
X6.7303Y-5.063
X6.748Y-5.3917
X6.7894Y-3.3583
X6.7992Y-4.2874
X6.8091Y-4.5276
X6.8228Y-4.7657
X6.8287Y-5.3917
X6.8622Y-3.1811
X6.876Y-3.874
X6.878Y-4.0472
X6.8799Y-3.6339
X6.8858Y-5.5827
X6.8957Y-5.0827
X6.9016Y-4.628
X6.9528Y-4.3681
X6.9744Y-4.5768
X6.9803Y-4.4902
X6.9843Y-5.3484
X6.998Y-4.7185
X6.998Y-5.4154
X7.0118Y-5.187
X7.0138Y-4.5768
X7.0157Y-4.3681
X7.0374Y-3.4587
X7.0394Y-3.5315
X7.0453Y-3.1811
X7.0507Y-5.0497
X7.0512Y-5.1142
X7.0689Y-4.2657
X7.0866Y-3.6181
X7.0906Y-5.2382
X7.0984Y-4.2362
X7.1024Y-5.0374
X7.1024Y-5.437
X7.1043Y-4.4882
X7.1358Y-4.9744
X7.1831Y-5.1614
X7.2126Y-3.4665
X7.2205Y-3.2913
X7.2253Y-3.7855
X7.2264Y-4.2382
X7.2283Y-4.1161
X7.2283Y-4.1555
X7.2461Y-3.7047
X7.248Y-4.0333
X7.2487Y-4.0021
X7.2539Y-3.6516
X7.2539Y-5.2815
X7.2554Y-3.7879
X7.2559Y-3.8878
X7.2745Y-3.9923
X7.2752Y-3.6334
X7.281Y-3.8627
X7.2909Y-3.9703
X7.2949Y-3.6137
X7.2973Y-3.9435
X7.311Y-3.8622
X7.3145Y-3.5945
X7.3209Y-3.7618
X7.3258Y-3.94
X7.3366Y-5.0787
X7.3371Y-4.9679
X7.3386Y-3.3543
X7.3681Y-5.1398
X7.3701Y-4.9665
X7.372Y-3.4921
X7.374Y-3.252
X7.376Y-4.8504
X7.3858Y-4.0079
X7.3858Y-4.065
X7.3868Y-3.5925
X7.3898Y-3.6535
X7.3917Y-4.6407
X7.3989Y-4.9687
X7.3996Y-5.1398
X7.4173Y-4.5984
X7.4173Y-4.8504
X7.4173Y-4.8898
X7.4297Y-5.1403
X7.4311Y-4.9665
X7.435Y-3.128
X7.4409Y-3.3524
X7.4409Y-3.4154
X7.4528Y-3.7047
X7.4528Y-4.5965
X7.4597Y-5.1408
X7.4626Y-3.937
X7.4626Y-3.937
X7.4646Y-4.0551
X7.4646Y-4.1732
X7.4646Y-4.2913
X7.4803Y-3.2539
X7.4941Y-5.1418
X7.5138Y-4.4626
X7.5217Y-4.6535
X7.5236Y-5.1398
X7.5335Y-3.4154
X7.5394Y-4.8524
X7.5472Y-3.3563
X7.5492Y-4.6083
X7.5512Y-5.2323
X7.5571Y-4.8839
X7.5669Y-5.2597
X7.5689Y-3.5925
X7.5827Y-3.937
X7.5827Y-4.0551
X7.5827Y-4.1732
X7.5827Y-4.2913
X7.5886Y-4.9646
X7.6043Y-3.7028
X7.6063Y-4.6142
X7.6094Y-4.759
X7.6122Y-4.8346
X7.6211Y-5.1033
X7.6299Y-4.5965
X7.6417Y-4.9429
X7.6457Y-5.0768
X7.6516Y-4.6161
X7.6516Y-3.6063
X7.6535Y-3.4193
X7.6537Y-5.2935
X7.6556Y-5.1025
X7.6712Y-4.641
X7.6752Y-4.7146
X7.6831Y-4.6161
X7.6969Y-5.0748
X7.6988Y-4.4823
X7.7008Y-3.937
X7.7008Y-4.0551
X7.7008Y-4.1732
X7.7008Y-4.2913
X7.7106Y-3.6043
X7.7264Y-3.2854
X7.7283Y-3.1929
X7.7283Y-4.4606
X7.7283Y-5.0748
X7.7441Y-5.2933
X7.7559Y-4.4823
X7.7598Y-3.7028
X7.7598Y-5.0728
X7.7657Y-3.6024
X7.7697Y-4.9567
X7.7894Y-4.8839
X7.8051Y-4.9606
X7.8091Y-5.2933
X7.8111Y-4.5933
X7.815Y-4.4587
X7.8189Y-3.937
X7.8189Y-4.0551
X7.8189Y-4.1732
X7.8189Y-4.2913
X7.8248Y-3.6378
X7.8327Y-4.4823
X7.8346Y-3.1161
X7.8391Y-5.2938
X7.8642Y-4.4547
X7.8898Y-3.4941
X7.8917Y-3.6339
X7.8937Y-4.4803
X7.9054Y-5.3151
X7.9134Y-4.5965
X7.9213Y-3.4941
X7.9213Y-5.2697
X7.939Y-3.6713
X7.939Y-5.2441
X7.939Y-5.315
X7.9528Y-4.8563
X7.9552Y-5.2205
X7.9646Y-5.2854
X7.9665Y-5.0709
X7.9714Y-3.6704
X7.9803Y-4.315
X7.9803Y-4.4843
X7.9843Y-4.1988
X7.9862Y-5.1654
X7.998Y-5.4213
X8.0Y-4.8583
X8.0Y-5.3425
X8.0024Y-4.8253
X8.0197Y-3.2244
X8.0295Y-4.9606
X8.0295Y-5.3996
X8.0443Y-5.5433
X8.0453Y-3.6122
X8.0453Y-4.1969
X8.0472Y-4.6063
X8.0669Y-3.2224
X8.0728Y-5.1594
X8.0768Y-3.6752
X8.0773Y-4.1954
X8.0787Y-3.3996
X8.0912Y-4.3994
X8.0917Y-5.3161
X8.0925Y-3.1181
X8.0945Y-5.5335
X8.0962Y-4.2929
X8.1024Y-4.0689
X8.1043Y-4.0118
X8.1043Y-5.2343
X8.1063Y-4.1949
X8.1083Y-3.2224
X8.1087Y-4.3174
X8.1102Y-3.4862
X8.1102Y-3.6732
X8.1102Y-4.2421
X8.1122Y-3.3996
X8.1129Y-4.421
X8.122Y-4.9626
X8.1228Y-4.3411
X8.124Y-4.4528
X8.126Y-4.0374
X8.126Y-4.0965
X8.1516Y-3.3996
X8.1575Y-5.4291
X8.1575Y-5.4547
X8.1654Y-4.6555
X8.187Y-3.3996
X8.187Y-3.5728
X8.1969Y-5.5945
X8.1988Y-4.7343
X8.1988Y-4.8248
X8.1988Y-5.0
X8.2008Y-4.5669
X8.2008Y-4.6142
X8.2028Y-4.9547
X8.2264Y-5.439
X8.2539Y-4.7323
X8.2539Y-4.8287
X8.2559Y-4.5807
X8.2559Y-4.9429
X8.2992Y-3.5689
X8.3248Y-4.6063
X8.3268Y-4.6634
X8.3268Y-5.1083
X8.3287Y-4.8209
X8.3319Y-3.7384
X8.3611Y-4.6782
X8.372Y-3.8346
X8.372Y-3.8996
X8.3937Y-3.9626
X8.4055Y-4.7579
X8.4176Y-4.6055
X8.4193Y-3.2657
X8.4193Y-3.752
X8.4272Y-4.502
X8.4277Y-4.5472
X8.4291Y-4.3346
X8.4291Y-4.3661
X8.4291Y-4.4035
X8.4291Y-4.437
X8.4291Y-4.4685
X8.4331Y-4.5827
X8.439Y-4.6319
X8.4449Y-4.5256
X8.4488Y-3.813
X8.4488Y-3.8445
X8.4488Y-4.7047
X8.4528Y-5.2343
X8.4567Y-5.5787
X8.5413Y-4.1102
X8.5492Y-4.5886
X8.5531Y-4.5433
X8.5591Y-4.878
X8.561Y-3.5689
X8.5669Y-3.813
X8.5669Y-4.0
X8.5669Y-4.0531
X8.5728Y-4.4469
X8.6004Y-3.815
X8.6122Y-3.874
X8.6122Y-3.9016
X8.6555Y-3.2677
X8.687Y-4.9862
X8.687Y-5.2441
X8.7165Y-5.5807
X8.7343Y-4.2087
X8.7362Y-4.3406
X8.7402Y-3.7264
T3
X6.0531Y-5.5295
X6.0906Y-5.5295
X6.1319Y-5.5295
X6.8465Y-4.6201
X8.4961Y-3.7972
X8.4961Y-3.8346
X8.4961Y-3.872
T4
X6.1358Y-3.3474
X6.1673Y-3.4163
X6.1988Y-3.3474
X6.2303Y-3.4163
X6.2618Y-3.3474
T5
X7.9378Y-3.3091
X8.0378Y-3.3091
X8.1378Y-3.3091
X8.2378Y-3.3091
T6
X5.6299Y-4.0945
X5.6299Y-4.4094
X5.7087Y-4.252
X5.7874Y-4.0945
X5.7874Y-4.4094
X5.8661Y-4.252
X5.9449Y-4.0945
X5.9449Y-4.4094
X6.0236Y-4.252
X6.1024Y-4.0945
X6.1024Y-4.4094
X6.1811Y-4.252
X6.2598Y-4.0945
X6.2598Y-4.4094
T7
X6.0551Y-3.3819
X6.3425Y-3.3819
T0
M30
